<mxfile host="Electron" modified="2023-12-13T11:58:14.719Z" agent="Mozilla/5.0 (X11; Linux x86_64) AppleWebKit/537.36 (KHTML, like Gecko) draw.io/21.6.5 Chrome/114.0.5735.243 Electron/25.3.1 Safari/537.36" etag="3Yn2AwR5aTmsarWEOkWE" version="21.6.5" type="device">
  <diagram name="Page-1" id="VpLSnJqHyOH1CQ7r-NCN">
    <mxGraphModel dx="1597" dy="741" grid="1" gridSize="10" guides="1" tooltips="1" connect="1" arrows="1" fold="1" page="1" pageScale="1" pageWidth="827" pageHeight="1169" math="0" shadow="0">
      <root>
        <mxCell id="0" />
        <mxCell id="1" parent="0" />
        <mxCell id="cz5juMuSYhJdmRvGYrTa-3" style="edgeStyle=orthogonalEdgeStyle;rounded=0;orthogonalLoop=1;jettySize=auto;html=1;" parent="1" source="cz5juMuSYhJdmRvGYrTa-1" target="cz5juMuSYhJdmRvGYrTa-2" edge="1">
          <mxGeometry relative="1" as="geometry">
            <Array as="points">
              <mxPoint x="45" y="390" />
            </Array>
          </mxGeometry>
        </mxCell>
        <mxCell id="cz5juMuSYhJdmRvGYrTa-35" style="edgeStyle=orthogonalEdgeStyle;rounded=0;orthogonalLoop=1;jettySize=auto;html=1;entryX=0;entryY=0.5;entryDx=0;entryDy=0;entryPerimeter=0;" parent="1" source="cz5juMuSYhJdmRvGYrTa-1" target="cz5juMuSYhJdmRvGYrTa-32" edge="1">
          <mxGeometry relative="1" as="geometry">
            <Array as="points">
              <mxPoint x="45" y="805" />
            </Array>
          </mxGeometry>
        </mxCell>
        <mxCell id="sDxwQ0sw2mHXU_9sSDiu-2" style="edgeStyle=orthogonalEdgeStyle;rounded=0;orthogonalLoop=1;jettySize=auto;html=1;exitX=1;exitY=0.5;exitDx=0;exitDy=0;exitPerimeter=0;entryX=0;entryY=0.5;entryDx=0;entryDy=0;entryPerimeter=0;" parent="1" source="cz5juMuSYhJdmRvGYrTa-1" target="cz5juMuSYhJdmRvGYrTa-25" edge="1">
          <mxGeometry relative="1" as="geometry" />
        </mxCell>
        <mxCell id="cz5juMuSYhJdmRvGYrTa-1" value="Intregration_MT" style="verticalLabelPosition=bottom;html=1;verticalAlign=top;align=center;strokeColor=none;fillColor=#00BEF2;shape=mxgraph.azure.git_repository;" parent="1" vertex="1">
          <mxGeometry x="10" y="560" width="70" height="70" as="geometry" />
        </mxCell>
        <mxCell id="cz5juMuSYhJdmRvGYrTa-9" value="Developer 1" style="swimlane;whiteSpace=wrap;html=1;" parent="1" vertex="1">
          <mxGeometry x="170" y="300" width="550" height="170" as="geometry" />
        </mxCell>
        <mxCell id="cz5juMuSYhJdmRvGYrTa-6" value="Remote Branch" style="shape=mxgraph.cisco.buildings.branch_office;html=1;pointerEvents=1;dashed=0;fillColor=#036897;strokeColor=#ffffff;strokeWidth=2;verticalLabelPosition=bottom;verticalAlign=top;align=center;outlineConnect=0;" parent="cz5juMuSYhJdmRvGYrTa-9" vertex="1">
          <mxGeometry x="440" y="47.5" width="51" height="75" as="geometry" />
        </mxCell>
        <mxCell id="cz5juMuSYhJdmRvGYrTa-8" value="Push to Remote&lt;br&gt;Branch" style="text;html=1;align=center;verticalAlign=middle;resizable=0;points=[];autosize=1;strokeColor=none;fillColor=none;" parent="cz5juMuSYhJdmRvGYrTa-9" vertex="1">
          <mxGeometry x="310" y="47.5" width="110" height="40" as="geometry" />
        </mxCell>
        <mxCell id="cz5juMuSYhJdmRvGYrTa-2" value="Local Branch" style="shape=mxgraph.cisco.buildings.branch_office;html=1;pointerEvents=1;dashed=0;fillColor=#036897;strokeColor=#ffffff;strokeWidth=2;verticalLabelPosition=bottom;verticalAlign=top;align=center;outlineConnect=0;" parent="cz5juMuSYhJdmRvGYrTa-9" vertex="1">
          <mxGeometry x="244" y="47.5" width="51" height="75" as="geometry" />
        </mxCell>
        <mxCell id="cz5juMuSYhJdmRvGYrTa-7" style="edgeStyle=orthogonalEdgeStyle;rounded=0;orthogonalLoop=1;jettySize=auto;html=1;entryX=0;entryY=0.5;entryDx=0;entryDy=0;entryPerimeter=0;" parent="cz5juMuSYhJdmRvGYrTa-9" source="cz5juMuSYhJdmRvGYrTa-2" target="cz5juMuSYhJdmRvGYrTa-6" edge="1">
          <mxGeometry relative="1" as="geometry" />
        </mxCell>
        <mxCell id="cz5juMuSYhJdmRvGYrTa-4" value="Project Chechout to&lt;br&gt;Local Branch" style="text;html=1;align=center;verticalAlign=middle;resizable=0;points=[];autosize=1;strokeColor=none;fillColor=none;" parent="cz5juMuSYhJdmRvGYrTa-9" vertex="1">
          <mxGeometry x="60" y="40" width="130" height="40" as="geometry" />
        </mxCell>
        <mxCell id="cz5juMuSYhJdmRvGYrTa-70" style="edgeStyle=orthogonalEdgeStyle;rounded=0;orthogonalLoop=1;jettySize=auto;html=1;entryX=0;entryY=0.5;entryDx=0;entryDy=0;entryPerimeter=0;" parent="1" source="cz5juMuSYhJdmRvGYrTa-10" target="cz5juMuSYhJdmRvGYrTa-69" edge="1">
          <mxGeometry relative="1" as="geometry" />
        </mxCell>
        <mxCell id="cz5juMuSYhJdmRvGYrTa-10" value="Merger" style="swimlane;whiteSpace=wrap;html=1;" parent="1" vertex="1">
          <mxGeometry x="1010" y="525" width="160" height="140" as="geometry" />
        </mxCell>
        <mxCell id="cz5juMuSYhJdmRvGYrTa-63" value="" style="shape=mxgraph.cisco.people.androgenous_person;html=1;pointerEvents=1;dashed=0;fillColor=#036897;strokeColor=#ffffff;strokeWidth=2;verticalLabelPosition=bottom;verticalAlign=top;align=center;outlineConnect=0;" parent="cz5juMuSYhJdmRvGYrTa-10" vertex="1">
          <mxGeometry x="40" y="36.5" width="80" height="88.5" as="geometry" />
        </mxCell>
        <mxCell id="cz5juMuSYhJdmRvGYrTa-22" value="Developer 2" style="swimlane;whiteSpace=wrap;html=1;" parent="1" vertex="1">
          <mxGeometry x="170" y="510" width="550" height="170" as="geometry" />
        </mxCell>
        <mxCell id="cz5juMuSYhJdmRvGYrTa-23" value="Remote Branch" style="shape=mxgraph.cisco.buildings.branch_office;html=1;pointerEvents=1;dashed=0;fillColor=#036897;strokeColor=#ffffff;strokeWidth=2;verticalLabelPosition=bottom;verticalAlign=top;align=center;outlineConnect=0;" parent="cz5juMuSYhJdmRvGYrTa-22" vertex="1">
          <mxGeometry x="440" y="47.5" width="51" height="75" as="geometry" />
        </mxCell>
        <mxCell id="cz5juMuSYhJdmRvGYrTa-24" value="Push to Remote&lt;br&gt;Branch" style="text;html=1;align=center;verticalAlign=middle;resizable=0;points=[];autosize=1;strokeColor=none;fillColor=none;" parent="cz5juMuSYhJdmRvGYrTa-22" vertex="1">
          <mxGeometry x="310" y="47.5" width="110" height="40" as="geometry" />
        </mxCell>
        <mxCell id="cz5juMuSYhJdmRvGYrTa-25" value="Local Branch" style="shape=mxgraph.cisco.buildings.branch_office;html=1;pointerEvents=1;dashed=0;fillColor=#036897;strokeColor=#ffffff;strokeWidth=2;verticalLabelPosition=bottom;verticalAlign=top;align=center;outlineConnect=0;" parent="cz5juMuSYhJdmRvGYrTa-22" vertex="1">
          <mxGeometry x="244" y="47.5" width="51" height="75" as="geometry" />
        </mxCell>
        <mxCell id="cz5juMuSYhJdmRvGYrTa-26" style="edgeStyle=orthogonalEdgeStyle;rounded=0;orthogonalLoop=1;jettySize=auto;html=1;entryX=0;entryY=0.5;entryDx=0;entryDy=0;entryPerimeter=0;" parent="cz5juMuSYhJdmRvGYrTa-22" source="cz5juMuSYhJdmRvGYrTa-25" target="cz5juMuSYhJdmRvGYrTa-23" edge="1">
          <mxGeometry relative="1" as="geometry" />
        </mxCell>
        <mxCell id="cz5juMuSYhJdmRvGYrTa-27" value="Project Chechout to&lt;br&gt;Local Branch" style="text;html=1;align=center;verticalAlign=middle;resizable=0;points=[];autosize=1;strokeColor=none;fillColor=none;" parent="cz5juMuSYhJdmRvGYrTa-22" vertex="1">
          <mxGeometry x="60" y="47.5" width="130" height="40" as="geometry" />
        </mxCell>
        <mxCell id="cz5juMuSYhJdmRvGYrTa-29" value="Developer n" style="swimlane;whiteSpace=wrap;html=1;" parent="1" vertex="1">
          <mxGeometry x="170" y="720" width="550" height="170" as="geometry" />
        </mxCell>
        <mxCell id="cz5juMuSYhJdmRvGYrTa-30" value="Remote Branch" style="shape=mxgraph.cisco.buildings.branch_office;html=1;pointerEvents=1;dashed=0;fillColor=#036897;strokeColor=#ffffff;strokeWidth=2;verticalLabelPosition=bottom;verticalAlign=top;align=center;outlineConnect=0;" parent="cz5juMuSYhJdmRvGYrTa-29" vertex="1">
          <mxGeometry x="440" y="47.5" width="51" height="75" as="geometry" />
        </mxCell>
        <mxCell id="cz5juMuSYhJdmRvGYrTa-31" value="Push to Remote&lt;br&gt;Branch" style="text;html=1;align=center;verticalAlign=middle;resizable=0;points=[];autosize=1;strokeColor=none;fillColor=none;" parent="cz5juMuSYhJdmRvGYrTa-29" vertex="1">
          <mxGeometry x="310" y="47.5" width="110" height="40" as="geometry" />
        </mxCell>
        <mxCell id="cz5juMuSYhJdmRvGYrTa-32" value="Local Branch" style="shape=mxgraph.cisco.buildings.branch_office;html=1;pointerEvents=1;dashed=0;fillColor=#036897;strokeColor=#ffffff;strokeWidth=2;verticalLabelPosition=bottom;verticalAlign=top;align=center;outlineConnect=0;" parent="cz5juMuSYhJdmRvGYrTa-29" vertex="1">
          <mxGeometry x="244" y="47.5" width="51" height="75" as="geometry" />
        </mxCell>
        <mxCell id="cz5juMuSYhJdmRvGYrTa-33" style="edgeStyle=orthogonalEdgeStyle;rounded=0;orthogonalLoop=1;jettySize=auto;html=1;entryX=0;entryY=0.5;entryDx=0;entryDy=0;entryPerimeter=0;" parent="cz5juMuSYhJdmRvGYrTa-29" source="cz5juMuSYhJdmRvGYrTa-32" target="cz5juMuSYhJdmRvGYrTa-30" edge="1">
          <mxGeometry relative="1" as="geometry" />
        </mxCell>
        <mxCell id="cz5juMuSYhJdmRvGYrTa-34" value="Project Chechout to&lt;br&gt;Local Branch" style="text;html=1;align=center;verticalAlign=middle;resizable=0;points=[];autosize=1;strokeColor=none;fillColor=none;" parent="cz5juMuSYhJdmRvGYrTa-29" vertex="1">
          <mxGeometry x="60" y="47.5" width="130" height="40" as="geometry" />
        </mxCell>
        <mxCell id="QxuZdcqgp66eboORH_xr-24" style="edgeStyle=orthogonalEdgeStyle;rounded=0;orthogonalLoop=1;jettySize=auto;html=1;entryX=0;entryY=0.5;entryDx=0;entryDy=0;" parent="1" source="cz5juMuSYhJdmRvGYrTa-69" target="sDxwQ0sw2mHXU_9sSDiu-36" edge="1">
          <mxGeometry relative="1" as="geometry" />
        </mxCell>
        <mxCell id="cz5juMuSYhJdmRvGYrTa-69" value="Intregration_MT" style="verticalLabelPosition=bottom;html=1;verticalAlign=top;align=center;strokeColor=none;fillColor=#00BEF2;shape=mxgraph.azure.git_repository;" parent="1" vertex="1">
          <mxGeometry x="1370" y="557.5" width="70" height="70" as="geometry" />
        </mxCell>
        <mxCell id="cz5juMuSYhJdmRvGYrTa-71" value="Merge all developed&amp;nbsp;&lt;br&gt;work to Integration_MT" style="whiteSpace=wrap;html=1;" parent="1" vertex="1">
          <mxGeometry x="1200" y="572.5" width="130" height="40" as="geometry" />
        </mxCell>
        <mxCell id="QxuZdcqgp66eboORH_xr-7" style="edgeStyle=orthogonalEdgeStyle;rounded=0;orthogonalLoop=1;jettySize=auto;html=1;entryX=0.457;entryY=-0.006;entryDx=0;entryDy=0;entryPerimeter=0;" parent="1" source="sDxwQ0sw2mHXU_9sSDiu-25" edge="1">
          <mxGeometry relative="1" as="geometry">
            <mxPoint x="2176.51" y="908.9799999999998" as="targetPoint" />
            <Array as="points">
              <mxPoint x="1938" y="790" />
              <mxPoint x="2177" y="790" />
            </Array>
          </mxGeometry>
        </mxCell>
        <mxCell id="QxuZdcqgp66eboORH_xr-8" style="edgeStyle=orthogonalEdgeStyle;rounded=0;orthogonalLoop=1;jettySize=auto;html=1;entryX=0.5;entryY=0;entryDx=0;entryDy=0;" parent="1" source="sDxwQ0sw2mHXU_9sSDiu-25" target="sDxwQ0sw2mHXU_9sSDiu-64" edge="1">
          <mxGeometry relative="1" as="geometry" />
        </mxCell>
        <mxCell id="sDxwQ0sw2mHXU_9sSDiu-25" value="17 Machine" style="swimlane;whiteSpace=wrap;html=1;" parent="1" vertex="1">
          <mxGeometry x="1520" y="490" width="835" height="180" as="geometry" />
        </mxCell>
        <mxCell id="sDxwQ0sw2mHXU_9sSDiu-63" style="edgeStyle=orthogonalEdgeStyle;rounded=0;orthogonalLoop=1;jettySize=auto;html=1;entryX=0.321;entryY=0.466;entryDx=0;entryDy=0;entryPerimeter=0;" parent="sDxwQ0sw2mHXU_9sSDiu-25" source="sDxwQ0sw2mHXU_9sSDiu-57" target="sDxwQ0sw2mHXU_9sSDiu-62" edge="1">
          <mxGeometry relative="1" as="geometry" />
        </mxCell>
        <mxCell id="sDxwQ0sw2mHXU_9sSDiu-57" value="" style="shape=image;aspect=fixed;image=data:image/png,iVBORw0KGgoAAAANSUhEUgAAAL8AAAEICAMAAAA5jNVNAAABMlBMVEX////w1rfTODMjHyAzUGEAAAD35M1Jcovc2dhta22BsMTvPToAHR40UmQiHyD43b3aOTQiGxri394fHyAeGhvRODMbFhcAAAwUDhDl4uEbGBsXHh/74L8THh8aHh9FbIP/7tb3PjsRCgzz3cIRDxUgFxXw7+8uQk8qNj8AAA4KHR/CNTEfEw4WAADoPDgkIyblzK9LQz3Qup9uYladjHm4pI2bLyyPLSonLTNXVVZAPT6fnp6+vb2qqam2tbWKiYnNzc2IeWmqMS5WJSQ5ISJ1aFthJiV6KigvLCx6eXlgVkxiYGPBrJQ9OjuQjY2Tg3JPTU4/IiKBKymULitdJiW4qZnTwq+mMS07ISK4NDDWvaJLIyM6Rk1QYGpuKCdylKTBqJFjhZRTaHNgfIl/p7lFTVWK2d3bAAAgAElEQVR4nM1d+0PayPavxGlhi4RADA8fVQxI0dYXbEUQ0daWh6jtbm11d9vv3b37//8L3zlnJskkmZBEsb3nh3u7QsjnzJz3OZk8efKYVMv1e52TYWrcBkoNTzrH3WTtUW85Kyp1L9sVQqlSNAxDBzKMYgX/1D7plX42vmlU6w51CtxQAsgoElIc9v5HN6LXpuj0IOw2UR6uj//nWOinCJGse0a+D4Sk+j8bsUC5k4oPfNksgMgX8H9JwSx7d+Go+7Nhc+pek4oHvEnI6OrzzcZTpI2bm89XI50yIUqXTo76Pxs6pU6ReGQ+UyCnN0/X1p4KtEZp4/PVHuVB5CD109GTildjC+XmUxd2kYunn88LxBGlIvmpQtTVCV9JR3LMQPScB8oCKdgXkJOfhj55zSRHr5CjiiX3V9PRWyxM7E0g1z8HfS2FJoeCb3f6pT5sRJmcR0DPBOlmZHFQVH6GM7gkRTTkg8t+KZcrHdMNIHs3weg3BGIs2BzoJPmj0R+jxTRIu1fKJZOl4zFRzMJnGXoKd05GlIu1mz3CGej/UPT9AUH04y6gz+VOqCSRA5/oBCAXeFj7XGBb8CPNUG0MaquTdreUpOj7nUlFMXyLH4adkbo7MH8wA8co+GTC0V+2qfEko/uAZxyMCj+Sgdo1ik6lg5LTPxm3DSVDmq7Fjw4eaPmcM9D/AfD7aDNJuw/ok51x6tqggZrL7MRDLzLw+FaoQ9BadFB0eqkUwDcHG2v3khyBAa4Dj52bDQF+cQCLn0yejFOpMYW/dz+5F0kdIQN68XEdWQrgV9pJlPwU0EApjNYeIDo2TdCMGpPHhH8C8EkKZed4DPDbhnmw9tDFR9o1MVGrPGI8fYzwhwi/g/BTujmaDfw5dZ95YnL8WPBLAvxLBv+oOHmw6NsMNDkDuUfCf2TA9orwx8XCxgxEH4j+ztoB0+Gdx4Hfo8tjHOUE4Ukp5GY28PkqDDCZqDxOPqPTH6/0HdWltqdyujYT4bF+5IY8nhfo0t8mnVwyV+pDQXOcGg90c4rsh4ae3tWH/P4zMmC0HwE/9bPGNc1TeikoaRqUFCfi9GLdiLUnTzGfPD04OP880h8pjqjRlan0ekPdqVLpA1t6pOKwthZNKUB1m1DeKpu8OmTM3gn00PNi4Aw3KFbov3Qp/A2G/aZ5evV5Q420/GsHxF2AIbMOIy6dG9B03WgPO8OiQj4HwX96ZRLTNAukGYGBp08/e+Arlc5M0ed0uzpYJNc0Xad6kKT5LjM/LjEH+DQntEps5DScgadrE71sFgpCgVRXZgm/b5cHK5WTfgljz1zpWucK4Ft9URrIboT1J2TU2t+/aI6IzXd/dvBzFhyDnCTRf+Vy/ePONU0apfAnDARdU6qShYtQ/Btzg91l2CZ1efeUF1SKM/RhBl99co1hfy7ZOxmPad6lo/t1SQ86UUCgm2RycHp6sEdC4btI3WXJsG7MDP6Qyz65xNCnezlm7rfN8HuXH+P4l4MmXVKkePhpKnZFZhrFlawCU68E6Ic8doDQH/B7ln8NEkGdmp3YuB0GMA6dmQUaFpnR7ILsXNroLfyuWzNLWFbu7o8eGLgqzC6GqPGQisLnGaONH+THYzvXaARZVsJNTggDe1QGyWzwHzNpPKbwu2MffneEswHLn3n5UPhzc5CKzSgGahsYEJZ88MH+vPS43rWDskJaDxIeJNiAGeWRbPm7yWTfA5/i14+WPfhNxTxYDgAVg9SWqRSHs4CPTQn9mi7/0AM/RZ3+uWepN4hSeDh6SrtE0Y9mgR/Fv3KZs3MuhwaK6Y3OdonvT/ej5Yk+GwVG6wnGx4s+ldIVX2ygDmK62yBSqRuZSRaJ6luRLX+Kmn/ffXdnoLyIv2nOJoSDpF0/KuX8yz829IlfVeXww2M46/KrO35FQanMwgBhqT9V8hkfMD9mhNieoTqPui1q84B9kyrwLEJQ9L7FYenYv/5HeiEyqtO9iEZV/WzlC2QmSTDDf1I68eOfKIW7SJg2IDuXfFXCPFSA2Kaq5cwsDCj0dJXiZckPP7WjkGjJOdalvJ4CNsWbmkH0vUGYA1GpAS0+GD7Wy8H8+8U/pZf3IuXmSMTv1ih+j/5g3UIpoAdRIYJ4KPwUiz0rl0kJfsP0r2kQ/LWRvxChNl+6tYJ989Qs46ej8oOLKG2e9xZPJOZnbERxtVaB6DMp+9a/VXALkFUCxQ1Qzx+M/9qqmQTgj2B+nOJ6uXDl/fZ+wWWA+XfXBmUd8J+aD0zBjop2yWcowd82olQWLPhrzQLZ9zCgFpTCru+7G00TNgDwK+QBDDD4mTz6L4n8U/z7ofht+Xn61NTNXTcDVMRdKsRLYdRzmeCIoQhzfwauGfyVPygDersklZ8I+J0daL7UTXdaTBVAkfiF5fMylSsIgJT7N8PaKPv59OKvKxD/1Iap9tGA0lFbwB8tqsFxHwhNdb3gMfgFpeyYIFVVl9W53f2rAYW9z/ErpHcf+CkL/vptGv6VvC7qbE5MNyZ8L6Lor7jaF4DWvQFUxguWEaORz14Zp0Tpbczz5Vbh/oVE5rYA/vNFxC8OGOrGNeJXTJ9FkdCuVcJSMSVxi8suceqjqmLq1qRuWUHh4gzEzuNZySED8J9vpRUfGQPAPymPQvGrI6KPTlv7u7t3LaiJeEQOshRrT9QDq3SbKezNYQDNJo/1uG6gz+FvUfjrn1asZTdxBhirqzowcK0Xwtef4BAxzA/juKQ34oENKJwyFbjDym2mXCijSFH8mXerbLliwecFq/QthW8vf5nsNW9uNm4+j/BT/SiiAXL3JUzvjtEYgjJ1wQTsbkTZVA5aTN4o/sbZ70vof8Zx8LMebPpXgP96Jc9k0B4rXLvBhTSoEu+EBxDqlThYjHLh+QJVCtuLUeszZxd89wF/9ivuALmMDp+ZnsYHgL/+a4PBF4ar1rBHq09oAmNEUIDWgEAXAFpz0lbMHcl4zRIjXP/sIjrQGEaI6e7SW4D/fP0ju9o1mMd6tAbUDyPUelR1v3l6MBodnDZ3ZdyqTaqnspoX4L9NJLbSqMRRdZi1WvLKc6TXaWf1155S+Uc+1vZ0FCCKP4oHnlPVaY2AZRhckrT5Ll5SFUwksl8QgxFxwhiFP5NOMPy3ID5lNiBzCuZn72LtKauR621I4GdSrILJb67DAtPU/qe3EpSBDyjD0SIh1mpJn6H0PF9/A8YTRzTW9goZNEPnKk1ny2CBjnQlcgFiKt3hWI6nZQAV0PRiAhj4uBrVjTHLv/KNwX++/p5eWcbxqqb10EGB6uwGxLYQT0TwYBFIbcF+lt2uAeKfRgJpcSWDPiccP8Y4lvBT8Qf1LUCPeq1wsM8DKshDLrhvj5QBh9PyKfUC5YEb/5WZWc0ifq4C4Ub0hEnPogU/q1H82CK9OV9epotughcFH0q4R45cVwthAHTYdC0Gje3yXxn+RPYbBgFhHb0komp84tLzejFLAxDWot6gCZGiF5pz+wpU3ZYH8EzR4FRqEe9F0HM1R4IVVQ/Kq285/kRCwTQqpB4E42FK/p0NPwH4ufXB0vj5MgzZZfTlubuL/bu55Zmhh+FD3R1eqHv66jcLf/aMSdDUZAYHTBzpgcve5R38+wW09ssH5QgTAbFJvQOVMp0AQ80oK5/s9c9+w0BoakGI2Z4PfPnh0ixNHst7aywtvSiwavkdiea14jKA05OCEhNl5VcbfyKxBDaoMqWlhMqbWXnuwE9kwX4qa2zE4aJgonguj2agtZLZMpYw2r99B+GPAz/LIrHglgaLmi3P9Zp5jg9Lij2isU8mTDrvyMPX3zszhAyAH7YTHAgfthICAxiKGYGRNPaJ8h/XbeFHple4+50D/bUSpeaD5d8/9DQ3xys+VijdNDONhEgsEQ/ywmzIIb0lSA+/xrxaw3upLy37/HCzE4hfH1j3OC/n32VF/EyYg+K4FCz/6u+i9MA1DeYAQFrV0WRW9nJDin95VHZKAst75dX3LvwJlgrKM4GSy3Y6PP++qtgzJi1llvj9CrxLMxmnPlEQzadgQ+UbgNK/+n7dJT30kt9WoBazhjdTZxKsgWjfyLQXahH6wPLAkD1+SbhpEVMZmQZw45NwSw9eAldsPHA024PUvPLL/u6VaSoZu0sDxtRlfmxzKDVBlxVh+V2XQPnTPF2bJf474o1a1d1TiM7Ncstafqq+mZWsB7+lAX4fIEq/uPw0dG1gBvPAyX4XtQrutvfy3TlMHdLUyLFsy4qef+vDn/0GJsjfVsXIZ/UP//LTSzIZKDbMUoBaL4XCqapejIhJrRzZExOwXaIsffLhtzbAix8Dz/StR3kZ/jewAebpDGZiLKKqWb7js337pwpU9MqFQcupQ7Pk0ae+gOYtbIC3JI01h3yeLf+i9xIMvUlTZIAmYA8IIdRCJlM4uGo2T0cmPs1fJpOWXZ2guoDBP09+PXQGq+ntC5+A8Vz5bV2y/E7yduUwsNwyyeD+Kg1+NlM2KUG9s1wgB/t2JqHOncL4llpQPN7XXs2MPxFjWeNr6fLDni2xvH3Odu1Q9Y44Gi8lKMjpUJErkPJBy9Fade6qUICGBs2vl75J8WM5ueLKhLHowEMH2TWLeSzClQtXMJG6vA/TwfDMV6w1d1nM/dFob29vdH7VuhPKWqraLJvogWGHZOKfsDTY1ZhH38u1N+Aa1lcwibI3Qn3TzY1Yz+uoVy1X/U31l+TUuaZSgGI6qK+pyMWfOyR3EESw4sZsv/ya2warQtNNYOX/wo0sgJ9CkDy3cKBYyh4YIqbKe7z0n/9DJgpWHiOO9qH4LLGSlfQSetGWsqQIRG7WpBGYj57yliiUqKiwDw6uWvu7c8uqKm7A7n7zvMyqY7oJ4T9YH2/wZhMLgipS8Xkt3zOg9+m8DZ8/tROOX4iTcaZZZ60Yc7A3Gh0cnJ+fH4xouiWc68Jb3ETB0q18LX9fdQdxFUd8AljGy86+pld5e408fRoDP//3css5MkTXy5wKV+qu3aIpM/gQu2WUICyYEwoWCItWq0x8gpcfOXifbiwJ+MMVYAO/pKqYE6q7I+I5Pwdicwe/yae+1YGuLH0IXEsMiXX7KdsOrH8D0/Ypy884SNxiBGs9MxgRf4vwhH95n4Y6bhbKBxZ+CN8YQXE1UHysRN7uZ+B8JHNeIfDhWjS/BdlTR1JihSNStgqD6m5zj7w0yxkBP5V2HZzwnZM5KplM8FoyF2YfVYCxD9YMp2ivQ4AfM3qfAsiKEvgdtUmcgFNd3m1djRQCDxvB81UjVSXmhNpW27BCHWuK+CQSt6IFReu58imK+CDzUJHW9yT41VMJAxuW8XR1J8Bs3l20Wk1KLeRJcAuQxftTLxeGRsbpBqD4M+sZAT4vYsgUWG3KRiQZi8unhYJ3+GcuoCcGy7/qT11EDCyIZgowtsU/kvhgQi9XgP0pj9qpe+WIT8Tgkxfps6kY3ggKgFU3Jar48PjJPF/z41dlszwW7ZLMy8lFOAc4tTF9+XkSwDxAzQkeIsHn8ZMp8WDqVUGZgotAknW1H/ZAFdRAp0p/gnsAVoZA9W3AqEAk8bHiJ6kHoDFa8KMXyzBdotPwYXTaurjbBaWlRFnZpeSwCSXQlWnGBzG8y1sxNFPfrcDQU0LQDJQL0Kk5VQVY+w+yFn6cHfs/IrRDQHkzq6Fr+N5WYBa8vY4s/pb7KEhDoLLu7eKKtCec+gZkRVMOzxA5UGkIjQOYAkMOcEQvyCyth8U+LlLyARaICrmuB8KHvNMX/9CcyCltoPTkAyM3h1hR6ph731WY1YgsPqyXVt6TCBAcIjOtIwzxDw0e2JQY5L80/T0X/AJ2kFbehONHIwiHLDDzAy2vqOKT4OLHNdgjQOqkDE3K4C2Ya52OJgrVgPJgj6W/woc4exFmfJAsA4TB8wqYn+jwWQok1WA8g6VwNa3WZSdey15LCv1xJTDvda+gkmEhNDOfZ7HEnxfi5UkMdBHv9/ydesHi6MDEUQTAknhe+ATzGdH6c4II0ApCvTBa92Rg17JO6bNQBlgdl1jmPxtL/BNWV0CeRcIhMvdhYGLZpkw4A9lPmEaVWOUQzH88/FtiFuAFQoPNDGnFrfcKziGcAe4Akk+GBs/dY8FnASy0ZaRpPJwlRqYqsZfUXQZf0zgDIS6MBzF9jJ4zUHiOIf7Zra+sGFQ8kG8AjXUKSuEguggtt1hWrNXnt7kOhCgxRqA0gm7rLHmMrr7Z7Ce7EhSYx6uUAXMQcbgG6hL4c9rhs2cLnIHG+6kMYApJehg+5P9Yj+59s18Ua54YzkkKKgTBDujunkEQerXJj2+s1p9ResEZWPk4bUkRf+X4yYCHDxHVN3v7USjDBYShjIFTGGzeC3uMX11uDfgo2vb8M6QXVfbfq8pWMCoWQHSe7Cisch4Jf3bRKSJyTSMBNgjrhTrUdKYJkaq2JtYhuNqLZ8/cDOQbt4GwLPwKxx8FPRX8VY6+qswvsLuQwB1Q9xUTw8sgDtS55sA+wndnfnPBy8AUO+rC/349gvnJnmkNHrBvHy44gmpObnxHuPDFVc9Bsk1ysO9LGemHF+fiSdY7mla1JEhgICgW9ax/qPnJbr21RGf7kO80NxU6ObhZW/NmArsXrVZrvzXCDhcR8l6M3XZb52bBnwv4GFDSAamkLf8Zhj8EfeKDJTo2eocBaB82KQtCI4jG+QUgy6fqJimPrloXF/sXreYpHCLuB4+//sLLQIAdtfBz+xPm7Za4zawK6CltWneh+AojaE1gVCxUyoWT52ne+xJ5Eiq49seZ1SXc3h2bAY1/siKtpVj4uf2fWu26/cgFX1MWnrmpzu8C54dja6Iw2Ds4v/LkuVLKwPc5A6vp1fcfPkJfRbO1+MUO/+0V2Q7gLBa1/9eA/+sU/NnEN1vwN5/56JDB73cMfFWErmNXFOA10unGqvvgf6d9YZrEHDUv7vCstNX0+611StglrM/PW1tQ57srU2LL/2L8owTjz37Jy0XHWiWGH3r4vcvh+MiAV17Qv+RXvixu/fqtkV5x3N3gFHXiZYEMzps0cVy+AEnKpN8u8mF3CMoyCw4DPBjKSDIyK/5JAf7GehB66rC46Ghe0UH09Gawy2I3sAancGfSWXh0aX198c279ArfhXJr+Y4apf+DuV0VTymiH6ys3K5b0+LP6c20eUq2DLEd8GdkdvzJ4v8A95U9W+Vdx+16AHpKhxqc5ZtzHu+gOSmfRYBFXV/81ODd18JoVyiUwylRmfS31w78dZpVaZv4o3wLmI/xl0NZFZnG/zz/kqKnkj9l8V/Mc1rY1OA0u06uxFm4rGBG58B6fvaO6VCZHFzw5ikeWb3U4IufzSYWFxcTgKq+IDKAXt7fCuYtmBJ7Ol9Wscg6gaZs8RfmHVqYP6R3qSiXyRzlofZkoue19eciUd38g3NQKOydn1Kiop+3Ft/2nmBVDvlP8yXbka//N15A7LL6gx/9r++slnvVt/gvRPRsC6ix0ytkfJzEU+1YN/M1J8bCrdbgxgcnT2BUluutELxQ/Dv2j+MWwOb6Jzl4B8Oq//zmnVn64qD3mR0fepsDxaiQ6+FlkbWjEghrEeQi+xr24E16iZv7RoP+K5Ox5vSd+37NC/hxCwC/Dx8rQMMprbz+5vncjnX8Nv+FBLzAgaIXi2yUyP2Ti1Qh1rPf0mlqENJvz84+UZeY5sIv4IfCnrA8C8xD+nup2AHD872IRL7eWbMOmuJZfNnS2zfjHCisn+C5IzBANXnr01KaOqvX2dt0ZulDYmsrK+auOB/puseLQxiJl88h4hgflBzdvfrsJy6oPKGbLjiyPZDhT2SZIp810lirB6hL6XT63bdFR/6xLOK+iwbxvQ//GU8fn6ADc5ccs5bXt6PZiOgZB+AO5Pjpst9+aGC1iUGgcktdnCg/v3nxb2qyfgA3//0nfHC1IQoYf2BW017ERs/3AOXfi//57Yd3TPwXMVy5bVgTawKuLw1Rf7lv8YcPbBAax1i7PgPE8EMtI1xppQzUlZU3kvXPLt5+ekcZaHwBgYcIIM0c1zT8h9JmJJ+AAGdZYv1H8SuI//AeS2+vGdhP700XsxgPfVhl4gwV5PTrrHtpQS4OXfh35O0knEC5dsYfvgpfYc296r3WnpEG/Vj/TRez4MzyeeV1NosPpKWzXr9Dw4K6a7mk4sMHIE6E8RNxE9E3a7bhjw1/QYOKWEBITi13Xvv9dwwM0689eSu1/zx+40TFXzIHx9W3Z0VbiuxBHy2KzZfjP6QReVBFL0u3Pr9KTZyhK/l3n37donvhPOS1lNFcv1SXtsN4+7Qkzp8IX2IHPthhT3z8dS2dCJpkxM4hjZX08TXR80uNdOOPb2++3G4lgI9fJeorCS6zeWGCDyMI1yax5oytwfEVYFOjDkCKP/shDa+NIwMabZf6+BaTTH5ppUGTzRXl4x9Khua/4i9p0ilitJD22V4T3asAKF52LSM+/gUYxZeWlP5oKMV2/7jLDjAuXdoneWuansnnefolLIRskImLv/UoJFMAcViXCZCtwfHxH4Jr8nudLRpY6Uc5PMAYKdcfE9iDV9U///1T34bYQzSfIP4N/xwcD56thzD6Pg/A2yvafRWACZBvDv8WcvkKvnaFUq0GbJSS/YG+8/0XoO9/vsICioN/Rxa7JRI4fuWcTsykUMTPlMzS4Pt4gPw7b00g+xs/BwFP0WXTp8iBof/5C6f/UAaqAgOasioZQv/iGSBmE1iufcKSgVa/twIc+r3OeyqU21XIOnD16b4P+0/oHuSIg/+X77gD1q9Q8W98CXgGRnhTUs+Xw/CHbbfvrQCbmlvvsrfailLVvgO+Irw/AwIXAjPAtRzR/rXx//KfbQE/WE+/9GQxixMegUEL6s4Bbl0uIL4CzGuZhvAQ3Bb0PV4BzL+qTIIgcNSZCSHGXw7+X+qao8GadJAMY3/XyYgshDgTedTQBdTvi59qniWQ2ezZ2/SqUq0yJaX5kj4pgfgPiFHD1av+7cD/vu1YUCo+K/7YjTtf8UVb7OkplwX6JArQPRSgTgXoNfjU209Kg95w25JxkCDSwWoXe4al5MK/4yw/io/EiaQ94mNZINfDti4BCsUv2SCqer+d/fZNYTWHVw5EKkG6nnOm33Nk+x/7w3+E5Z+Xx27s8QX3wZr47GzjN18QbVmgMPybvr/A4q00Vngq+uo/goRX8ThIu9yYJNvOp9uaEz6D+Ehit4++x0e4C3MnAThgYGUB0xVgoV6t+/9qtTYA/ncBPl1jqn7JnHPvbfvjv6pO+BYQu6Fg6PoTN+GrP9P+LLj6Igp+Tan7RGyB9WY0H3xU4cpl0sFvf/79lRj9U/H5GGD8fccidtjjp74YgsdAIQqg0VjVxyLUUrTDzYzy6h83fLDxupKj4UuXejBqR1/9l3/wp2A7wXlJJpn4E8Des4z447/idrEYYicC/k3AL9mjBShpadqfv3gJjoE7TlLJJyRHjd8ri69XgvLKxYfVnSXH4uIYqNsHY5LAg+hp8GGl6kFCRqXnvz781IbqR6Vaj3qwLrxNj/9Z0cTcVx76M9/b9+HPsWfAxCwAXQC3oFPrhnSN6/JNoosoBgeOBmhwHnxNIQMI34/YH//eFku3dZn4MKsiPdUXfbBrA1CDuQJMVWCKf1OKH0Bsf5fgpxpgjKkJBSM0fMU4/O+rqqC8Cxmp+KBMSF9y2fdvAKaRERQgED9UP7Yl8KmogBAwEzTmvu3Pqpi6bMrEhy+//OVm0El1pTEsTWMKEIZ/XvYdLP5p//rlH31Acch82BGzTy7lZe7P77yY9MvP0+z7TBCmkVwBpuGf1/BLfvzY3dZe/SVhgPqwCktiisz86+7MXZOIDzM+ge8VugYNWP1d2IC3eVsBpsFfCMA/z8cLqtt/+/D/XaVOCDeAmf+/ROXFnfM7L277g44zZYdHCU6YidthuAHKoJuW6O8h72dUt70+7L+veBhNw7dfwKJWXRfuSMSHBc5TDiEbs9OjnMvQAlXD8e9sy/EzDUDarno4+Jf6sF4SGojg3w5dph+r/m7xgUh8yuknSMwJNxy+MVOrhirwwmEQfuqC6zYHbikCH3ZNN6BD/gLTr7h/kK6jk3lls4nbXz99ezf9+J8n1gFMDaedAzvGFPie+F0cVLf/EmwRjeLAh41pbA1xm7fqbFXNs9mtN28b6ZWVVcwIjdS0YxzxkFsn50QFCFfghfoU/IwDSw9e/Wu7s3/Ah5VyRaq+h5q76E/FJ8MS9+zim6/pFXGMxZh2HHGXqbCddGKd/fCB+F17oL0aWIqwDcLcJVVqe9xVQ9BeiIVp5vy7OL/CadoZahhFOBK0GEmBQ/G7Odje/gs3gSaSxpiKP5Ued88Ce3ZnMAJgzzvCS+sosWppqAqvWmknZpHMAz8Mv0uKqBgpf38HE6oYE+MfKrO+5c9o2Tf5hrP0BknRWKmfwrNop70Z79hlgzDbCVXgSPiRA8XigLIw+GeAWAYez4teO/8xs+IIfZFc83StXzRCJAi9MPViWUeB54Pwb7LCw1T74+KAdYcZ6XaCvLPg0Dz/Rt5GbxAydE4LqUGmO+31tEyC8hmmAlDrYgZI5p122MoF+y8RugWw7p6Jg/WZ36zXD4F2FFvGbPCprh/ftMN8u6IKoAcOMkCQnRzCFsjjHwswhQdUtzDuePAfHnpA2ztEyNgf6kO7YqoXG/Ljk7FLC6X2aqABhftuLrjiZ0sMEDGA1SySYgwmg0yOpb4KN2CaFxswFQAvIBggmVBggA8LinWueYRNVznDAceFLBK5DpIRSNWnvljIPj48y866qAYa0IVDfrcqVc36zn2WWU66x8Tkusc2O5Co6FPfsc5UINPYYgM5zIBK8C8s2LooA64bxUqFSAgGXWWo0UeBk9IHfeeIseTlEXGxgwI09c1aHWaE8otCBOSbeaNWw6uKNmxEeTQeXnZ63X4fpvoYlUrJfve4M3r5p9EAAAgqSURBVBwP6OcoptXq9rbGxoiLwxqINY0B9HbJqs91J/Sn3OU2qNaGvJiEv31BwyqW1IBSN+NbcgMXcDA+6XSTYad9J7sdGD2qL7ACU1WxW1pJfPMgw187IgZpe36rFypA1ss7Vr86EZwH/+Y2Snu1WkU2DLrklfbJcT/iG9Nq8CJPYtVXnz2r687Bhtc8tQFRLxLFZ0Jr4QJkGaH8O9jZjA//wouFen1zc57Zygw1yMf9WO9IqEETT8DPxpDZZ3R9WYG9TzdTFi3DzFvYq81qRVQxFMxt//q7Z0K3Y78jBPDnig5+nLO1mioEqlt0fY+78kUGCxr6ctGa894BqQMQp8uqlRivF7Dxlya6jR8Hna1T0dqGPijZMU+tT8nFCA4Nh76aqmQzUJU6sIUXNguZ2G+axPVvGzb+ZyA/VmGQ4rMUmOa0ltEdd1wTA+EvNLAZYA5A4r9A/oGLw9ivikX8KQc/BP22UaSKQVNj/Of1YHJ0PR6edHp9p+WUwzcihm+5xUAwfs7F4bSINhj/sMiLG9S3HCrCTABV4OMpFjgHlZ4o7zOoYbrAM4DgDGyhHvtFaYj/pKjNv2DjgTBqYk3kwaEOYofPd23uMpICwFcH4AfkDtiNP+YbZhD/ZcU16+BAGhat6q78WmxYR1syyMdYG3UK/k0t7it+EH/HwT/P8HPMnYrRzgU6qFwyGRpD24SxXAh+enNpTyEM/3HFSX0Z/r51Uz5jQHWwdzlE9XXQUssLHiwafrRVh6H4477ojeEnQuqO+LlTpetrYIu+NhHC1lSvxi8tQbMimvzgVmVC8M9rcR0A4u8RofKDAQQ/2JZGOLYDwDktcGFdSvCHEsUPj41Xgn7bRThfXA2rAMV+VzjGP10vfjuvJdBeCpCPJFt/Pdr7YDDY2w7Dv+Pr6EfD70wLL2DqYFWm0IHJ8WPkQeU/6o4TKwCahv8wrgNA/H0RP+ZC1q/o1IFZU4q5XIkSy3+e4PKj/Yn6XrxI+OuhrwYJwO+a9uFRfS2XG+iVjj1l6aNcj0R7m42FH918MHxIxmIa0BpfRi/+PqgnRKbFkyn4IXOLuuGVCPjjG1DEnxPxQwBBIzgEWDrSjWEwfhCfyAZPj4Y/pgG18O+48RcZasA/LuUsAvmH/+LoS5C/RH4fGBRMIQCdXp7Vor7eyoVfx8dlLRFEA8rwX+v6pNfrHXcuT4ap9vUEXzt52WXSAyFBlHchMRpEwb+gxTRAiB/MoI0fAwho6eVKyc4Aq5+kUqkUi4ahY2FDGV/2AX4fikfRE1YYT9dC8e/EjEBrXExc05KwrLX+8ZhYr71lVZkKORp2uskSClCpq4dU0D2EDYFqffpTPOAA+rHx0wTSgx9WHetadMmBUKSOk0z4QRP6Q8ypYtxszFKY7UPZlKSNvx73PavcDrrGJa0FhyJYOzU8ORlSSd+57PXhqdZkv9cZHhGsS5EY71U/sV4CrE3hgEpvzHe1I/5hURjY4/jhKVzbF46LrCrK6qgVVtNRSJzXqvecF1Bq9UAONuMaIMRvJ2BQB+M36bj0yLBWT+wnxXM14vsngzmIa4AQPyYw2O2o88aYdzSv1GbLj9pQYVlArPtABlAUGKARr7QToMU0QFYcc1jHdof1+xI3WEt2j6kboFnYZcwipfUDKSK8PVdTNiUcgAHtx8Wf7LtfjqpEj8pictBRhE3QFL8UUQMaLwKyAxnR0pO4aXR0oobX8SqaTw+oAZVMlYbhZ+/6pB4Kf9poPxp6oNql6Be1Q5cYUQMaLwVjcQ50UkhxfInzy48jOyK5OdDq0ACwDWg8Bc7xAEg/7oJfxbGA+yhnTHJxQFk4rLMmxgIY0H6MHyqxAMhQ2D+uY2QkDyM3B9B43KFMbNL1j6XAFuydEvfEP2b9gToV4m1/ogWf2tX3UokHcGz9c6AAPwo/jSkG9oOXIhXDr7SJBaBjQ2ePE3ZjZOSzoH6K+FkI6wmKVOMBqMHw5ypxcpKZUK9t9aBt/DHsN8dfrLCsFipqlXgR7Ayof9m22lPgnuOE0DWutoSXRGiYHrEiOGOqJaGymoQ0QfpgQRB58ENP8ccY0AA40VsK/AK26qSftEO5H6nAPsIIoB/9+x78JT10KONxCceKYrSxeQJGuhw/dQWxHMisCSx4nBwyx9wW6TEDxDzw48ELpVr0niBSieG36uTMA8dwIDMn7En1I3+ddyCtOjkzQI+aAIQQLGAMBeAdyMplzqlq/lQFhmQqhgfgHTy7zt+PUxR/FDIiN2WR2KIXhwL+eCnorAktSHQJZmGnkeLy8/Pxx5SAHC66kYLibKl7AnX6nys/2CqLngNg4Ez0a5inHBAsbf7gCNpLUKqOHsPUWAFFJ5UKH2fVf6b/esIefohuArERLaYPerwK3uypFi+E4GmLlXySyc8MP5GOYllQlgDDwkONOdV/RGARqRMri83xqE2fnPTide8fi0qxbHgOA+jwUdofSJPIc0U8Ae797KjHTZ2oQSSbf2BRw/8QfhCgYrgAWehZ3Sdm5+9RCQSoMjjpT/tOyQafK+Woyfq5UY+bsJAP9vDoRD48XuPhGsWe7J1cQyU17FmEH0k1qyOENv16eOwaA6thrFbKQUcuNSEs6Ikxi/EDqC1WFPmTMApMYJ9cDoFS4+tBkTgxz8+P2tzU9bUU4bgemGZgPVzD0D3F91jd9MeniaeoG0IGifvow2NT6XhMLNEOwU4Fafy/ETl4CE0Lf1RNFBgqSYb9VFvxetj7YS2Xe1ANRl5OhmOY/4Lpzh18liI1POkcdwOna+PR/wM06Q/johy/4wAAAABJRU5ErkJggg==;" parent="sDxwQ0sw2mHXU_9sSDiu-25" vertex="1">
          <mxGeometry x="290.32" y="70" width="50" height="69.1" as="geometry" />
        </mxCell>
        <mxCell id="QxuZdcqgp66eboORH_xr-15" style="edgeStyle=orthogonalEdgeStyle;rounded=0;orthogonalLoop=1;jettySize=auto;html=1;" parent="sDxwQ0sw2mHXU_9sSDiu-25" source="sDxwQ0sw2mHXU_9sSDiu-62" edge="1">
          <mxGeometry relative="1" as="geometry">
            <mxPoint x="610" y="105" as="targetPoint" />
          </mxGeometry>
        </mxCell>
        <mxCell id="sDxwQ0sw2mHXU_9sSDiu-62" value="Jenkins Agent" style="sketch=0;pointerEvents=1;shadow=0;dashed=0;html=1;strokeColor=none;labelPosition=center;verticalLabelPosition=bottom;verticalAlign=top;align=center;fillColor=#505050;shape=mxgraph.mscae.intune.account_portal" parent="sDxwQ0sw2mHXU_9sSDiu-25" vertex="1">
          <mxGeometry x="450" y="80" width="43" height="50" as="geometry" />
        </mxCell>
        <mxCell id="sDxwQ0sw2mHXU_9sSDiu-96" value="Controls Pipelines&lt;br&gt;Schedules Builds" style="text;html=1;align=center;verticalAlign=middle;resizable=0;points=[];autosize=1;strokeColor=none;fillColor=none;" parent="sDxwQ0sw2mHXU_9sSDiu-25" vertex="1">
          <mxGeometry x="255.31999999999994" y="20" width="120" height="40" as="geometry" />
        </mxCell>
        <mxCell id="sDxwQ0sw2mHXU_9sSDiu-97" value="Perform Build&lt;br&gt;Generate Binary" style="text;html=1;align=center;verticalAlign=middle;resizable=0;points=[];autosize=1;strokeColor=none;fillColor=none;" parent="sDxwQ0sw2mHXU_9sSDiu-25" vertex="1">
          <mxGeometry x="416.5" y="25" width="110" height="40" as="geometry" />
        </mxCell>
        <mxCell id="QxuZdcqgp66eboORH_xr-25" style="edgeStyle=orthogonalEdgeStyle;rounded=0;orthogonalLoop=1;jettySize=auto;html=1;" parent="sDxwQ0sw2mHXU_9sSDiu-25" source="sDxwQ0sw2mHXU_9sSDiu-36" edge="1">
          <mxGeometry relative="1" as="geometry">
            <mxPoint x="290" y="102.5" as="targetPoint" />
          </mxGeometry>
        </mxCell>
        <mxCell id="sDxwQ0sw2mHXU_9sSDiu-36" value="Chechout the merged work from Integration_MT" style="whiteSpace=wrap;html=1;" parent="sDxwQ0sw2mHXU_9sSDiu-25" vertex="1">
          <mxGeometry x="60" y="77.5" width="140" height="50" as="geometry" />
        </mxCell>
        <mxCell id="QxuZdcqgp66eboORH_xr-22" value="" style="shape=image;imageAspect=0;aspect=fixed;verticalLabelPosition=bottom;verticalAlign=top;image=data:image/jpeg,/9j/4AAQSkZJRgABAQAAAQABAAD/2wCEAAkGBw8SEhUPDxAVDxUQEBUQEBUVFxgWFRUVFRUXFhUVFRUYHiggGBolHRUVIjEhJSkrLi4uGB8zODMtNygtLysBCgoKDg0OGxAQGzAmHyUtLS0uLzcyLS0tLS8uLS0rLi0tMy0tLTUtLS81LSswLS0vLS0tLS0vNTAtLTItNzctLv/AABEIAOEA4QMBEQACEQEDEQH/xAAcAAACAgMBAQAAAAAAAAAAAAACAwABBAUGBwj/xABEEAACAgEDAgMFBQUDCwQDAAABAgADEQQSIQUxBhNBByJRYXEUIzKBkUJSYnKhFiRUM3OSk7GywdLT4fAVY4LRCDRT/8QAGgEBAAIDAQAAAAAAAAAAAAAAAAQFAQIDBv/EADcRAQACAQMBBQUGBgEFAAAAAAABAgMEESExBRJBUaEUInGx0RNSYYGR8CMyM0LB4UM0coKD8f/aAAwDAQACEQMRAD8A6yquBlVpAya0gPRIDlSA1UgMVIDAsAwsAtsCYgEFgFtgTbAm2AJWBNsCbYAlYAMsACsASkBbJAUyQEukDHdIGPZXAxba4CfKgZ9aQMmtIGQiQHqsBqrAaqwGBYBhYBBYFlYFhYBYgXiBMQJiBMQKxArECiIAFYFFYAFYAMsBTLAUywEOkBDpAxbEgJ2QM6tIGQiQMhFgMUQHKsBirAYFgEBAICAQEC8QMfqN5rrLqATlFGe2XdUyfpuzA1Q8SorNW9bs1W42tUpepVU2gOX4wPubMj0IxzxkB1HiioAstdm1GXe5Q7NpKEkEdyUsDAesBtniWld2+uxfK2+b+A7NxAX8Lndncv4c4zzAyundVW5igqtrKoLG8xQuAzMqjGcnOxjkDGPWA/Q6gvv3KFNdrV8HOQMEHsOSCOP9sDJxAoiAOIAkQBKwFuICyIC2WAl1gIdIGPYkBOyBmVrAyEWA5RAaiwGqsBgEAgIF4gGogFiBeIAW1KwKuoZSMEEAgj5g94Gu6zrNHpKjqdT5dNdCkBioyoPGysAZye20d4HjHW/bgfMJ0HT6VAwos1ALOyryBtrK7MHGBuPaBPDftorFqnXdPpUAbBZpgV8tck+7U5P7zZIYE59YHtnQ9VpbqUv0Zraqxco1YAGMnggDgglsg8g59YGdtA7DGTk/X4mBQgXiAJECiIAMIC9sCisBbLAS6wEOICLFgK2QMpFgPVYDUWA5RAYBAMCBeIBBYB4gXiBIHMeKvE3kHyacG0jLE8hAe3Hq3rj0kDV6v7P3a9fktuzuzvt/4mT+X5/6fPftP6zddqBXZYz+WgY5JPvNz+Qxt4+ZmdDE2rOS07zPyO1bVpeMNI2rEdPxn/TjJOVKQO79lfWr6bnpqsZNy+YuDxuUgHI7EEH1+Er9dE1iMlJ2nouOyZrkm2DJG9dt4/CfwfQHhbxGNT91YAtqjPHZwO5A9D8R+f030mr+1923X5ufaHZ/s/v05rPo6PEmqtMQKIgC0AMQKIgCRAWwgJcQEssBLrAVsgZKLAeqwGqIDVEAwIF4gGqwCAgFiBIF4gePdZsLai5ick3Wf0YgTzWa0zktM+c/N7nS1iuGkR5R8nlftE0TLqBdj3bUHP8AEg2kfptP5y27PyROPu+Tz3bOGa5u/wCEx6w5ST1OtRmB2fs60Z817se6lfl5+LMQf6AH9RK7tHJEUivjK67FwzOS2TwiNvzl6h4csK6qgjv5yr+THaf6Eyt087Zqz+P+l5raxbTXifKfTl65PRvEpArEANsCYgCRAAiAtoCysBbCAh1gLxAfWID1EBqiAYEAwIBAQDAgXAuBBAuB411b/L3f56z/AHzPMZeL2+M/N7rT/wBKnwj5MHxl0aupVo6gUrW8FqWLgZKYyyMexG9e/wAfWSq4dRgt3qx/lCvqdHqqTS9v14mHnep8FW7v7vdXep/D7wDfTHb+snU11dvfiYlU5Oyb7/w7RMfEzQ+DLQf7xdXSoPOGBb5gZ4H1i+vrt7kTMs4uyL7/AMW0RHx5eh+F+krZUyaEI9enGbWV1IU4JyxzkscHtK+2HPlmb2j/AAuKanSaesYqWj4Ry2PQP/2aP8/X/vCctP8A1a/GHfWf9Pk/7Z+T1+ekeIVAkCoFEQBIgAwgBtgAwgKYQEuIC9sB6CA5RAYBANYBgQCEAhAuBUAgIFwPGusj7+4f+9Z/vmeYzx79vjPze60v9Gnwj5D9rHQb+rJo20W3FCW7zY238flYxjP/APNsz0mO0WrEw8VmpamS1bRzEuP8MezPqOn1mm1NnklKNVTc+1yTtSxWbA28nAm7kT1r2XdSt1F1yeTttvssXLkHDuWGfd74MDufZp0a7pWk1iazbm/BQodw/Ay4Occ5InLPaK47TPkkaSlr56RWPGE8OD+9Uf55P9soNN/Vr8Yev1v/AE9/hL14mekeICBAKBUCjAowAIgCRABhAUwgIeAvbAyEEBqiAQgMUQGCAQgXAqAQEC4EgcB486IEb7VXwLGxavwb94fI+vz+sqNdptp+0r+f1ej7J13ej7C/WOn0/Lw/Bpug9S8pvLc+457/ALrfH6H/ALzno9R9nbuW6T6O3aei+3r9pT+aPWPr5N31TSNZt2ke7nOT8cf/AFLt5YXTNM1YbcRzjsfhmBz3Xepea21T7iHj+I/vf/X/AHlFrNT9rbaP5Y9fxet7N0Xs9O9b+afSPL6uh8BdFB/vdgztO2kH0OOXP68fr8JI0Gm/5bfl9fohdr67/gp/5fT6u5Alq8+KBIFQAYwIBAowAIgA0BTwFMsAcQGrAMQGqIBiAYgWIEgEBAuBIEJganxCMooPILEEeh90zExExtLNbTWd46vHn1aKxrY4ZXVMcn8f4Oceo/SU2XQZIvtSN4/fV6jB2vhnFvkna0dY8/g01l6t7xcheH4Z87GYh/T0bAA+Euax3axHk8xkt3rzbzmZFRbsYMWJKhsgu5G5DiwduQFOR85jJXv0mvnDfBkjHkreY6TEt1p9XUzqm7O5guMHuRkA/lKjDoLzf+JG0fN6PVdr4oxfwZ3tPp+MvYegr7jAcAWH/dWXLzEzvzLaQwqBIAkwKAgWYAmAJgKaABEBbCAGIBgQGoIDRAIQDEC4FwLgSBIFQOW8d+IKdKtSuGsd2JWuvaW2gYLncwAXJA7+v1nTHivknakbueTLTHG952cePFuh/wAJd/qtP/1p29iz/d9Y+rh7bg+96T9E/tZof8Jd/qdP/wBaPYs/3fWPqe24Pvek/RP7WaH/AAl3+p0//Wj2LP8Ad9Y+p7bg+96T9EPi3Q+mkuz6fdacf186PYs/3fWPqe24Pvek/R2XgTxBTqksVA1b1uC1dm0MFZQFb3WIKkqw7+hnHJivjna0bO+PLTJG9J3dTObokACYEAgXAqBRgCYCyIAtAU0AIDFgMWAYgGIEgGIFwLgQQLgDY2ASAWwCcDGTj0GeMwPGeq9C6xqrn1V2is32nhd1WK6xnZWPf7AE5+JLH1lrps+DFTbfnx4lVanBny33248OWN/ZHqf+Cs/0qv8Ankj23D5+ko3sOby9YK1PhjqFaNZZpHRK0Z3YtVhVUZYn3+wAj27D5+knsOby9YMHhLqZ5GjsIPI96r/nj27D5+knsOby9YX/AGR6n/grP9Kr/nj23D5+knsOby9YZvROi9X0l6amrRWEodti7qvvKmxvT8ffgEfxKvpmRtVnwZabRPMdOJStLgz4r7zHE9eXsYMq1ouBWIEgUYEMAcwBMATABoCmgBANYDVgGIFwDUQCECxAomBFMAoEgSBRMDzvxj1q2yy3TKxWlc1Oo48zI9/ce+3krj65zkYuNLhxVrXvbTa0TPPlHlH5xv8AFQ9oa/JXL9lSdtv1lleDeuX+cumtc2LYG8vdyysqlsZ7lSFbv6gTjqK4MtLXxda9duk87bR4bx47dPHlt2Zr75bzjvO/lP8Aj8XUdR1t9b4rp85fLzwGBDbsctgjBGMAAnPJwOZWrwg9W1PONG2AQPxck7NxAG3tuBXd27HOOYBWdR1Iw3kd60bZhySxZgwLge7tAU4KZOfrgJoOo6l7NlmmNaFm94k+6FUHB4wxLZGQcfAmBuIFQIYAEwJiBRgAYANAW0AMQDWAwQLEBiiAYgXAkCoBiBIEgUTAoQOI8adBZPO11RBRa2uvQ8MPLXLMnochexxz6nPE2mTBlx1x54n3ek8/pO3O3PPWJjiYU/aHZftFu/Xr4svwl4ZepxqbyNwU+UinONwwWZvjgkYHHJ5Pp01OqpOP7LFHH6cR4RHk6aDs+dPPetPPTjpDo+o02MF8s422BnXcyb12sNu9QSuCVb57cdjK5aNbTo9epVftCuiogOcByRjeS+w/PHHbvydwCl6drdlStqFLVrtdxuXJyhDkc7+FYbW/e5JxmBsOmV6gbjqGVixBUKcqvfge6pPGOT/T1DOgVAEmBAIEMATABjAW0ADAGASwGCAaiAYgEIEzAoQDgYl3U6lLBm2hOHY8KrFQ20n47Tu+Q5MCtP1XTu/lrYpbOAM8t7obK/EYPf1wfhAzYGJfr6EYJZdXWx7BnUE/kTOlcOS8b1rMx8Gs2iOJlks6gFiQABkk8AAckk/Cabb8NpnZ534j8ZHU126bTVDyrqnpN1hILB1KE1oPrwT+ks8XZ3G+SfyhTZ+1orO2ONxeGPaUlhSrV1eQGIrS1TlN3oHB5UfPkfSZ1HZk03+ztvMRvt47JOHWzbbvxtE8bvQbHABJOABkk8AfnKuI34hYE6XW02Z8q1LMd9jBsfXBm98V6fzVmPjDEWieksmc2WHZ1KpSwZtoVghY8LuK7toJ7nbyfQc/AwK0nVaLW2V2KzYLbfUqCBuA+HI5gZbQIBAkCjAEmAtoAkQFtAGBamA1YBiAYgWIExAIQLgaHrGq0qWOt1O8iquzjGX3G1SNpIHArxknneF9cEC6RqNM15Sqjyz5W8NwMjcU2nB7jA93uoOCFyAQLxF1w6f7uml9Ra1VloVNmERMA2WF2UbQWUYGWPOAcHHTDWLZK1npMw1tO0TMPJ9Te+5iW37/AHnc8lSe7MfUHv8AL6drTU6m+LJNazG20f8Ar/H8Y8dvDrPCv0Ggxa3DGbNWe/vO0b/1+JnuxvPuzE7V3jiYmKxHf67wdT1H2C3Siux6vMrQ3hq9lauy7qSCwc59MKQBZjgTpfHX2ilvGYn89uk/vyRK57zo77xttO3jxHHHPPHTnlzl11gwUYgJbhgUyjJlhtUgcEe7z8p2ta3h5q2ta+PjHnzu5Lz3IC7jtDnII4xkjg+n1kud4v34677Tx4b/APxOifd7s9OsfF6b1Hq+pt0elquSylBpw/mO1ZW/aFAfCsTgd8OBywPpmVtcdKWzWidpiev3fHx/e0JWXJktGGncm/enmvO9ukbbxzzv+rVaDW2pYLlJR6huQDgt65Prg4xt+BOe/GNLltqLTTJxG0e757/3c+kdY8eXTW6PFoO5bTb33tMTffptP9LaJ2mfGbTxbiacRMvXOjdYF5et6X01tJXzKbShcK4yjg1sysrYYAg91YdwZSrNidT1GkSxhbTvYshwMEsSje8UJGeF2+pOQvPAgX0DUad3cU0moqikHj3lYA4yCQSDxjnbkds4gbyBIFQKMBZgVABoC2gBmBaQGrAYIBAwCEAoEgI1GuprdK7LFRriRUCcbyuCQvxPI4mdjc/MwBssCguxCqoLMTwAAMkk/CBpvDFTWCzX2qQ+s2mtSMFNMmfs9ZBGQSGawg9mtYekDA1XgXTs5aux6lY5KAKQM+iEjKj5HPw7cSdGtmdptWJmPHpv8fP0Q76Klt9pmN/x6ePHlzzw3FfQdOunOkVSEYHcf2ix/bJ/eyAflgegxOE6i85IyeMdPKI8vg7TgpOOcfhP68+O/n+Lz/qfhS+pj9x5wzkOibs/MgZIP/mZb4tThyRvxE/i85n0WoxTttMx5xz6Oe8NezzV6l1N9LaWoHLtYu1yPUIh5z8yMfXtJGp1+DHHu7Tb9+Kdh0mW8+9xD2DqfQNPdSunZdi1ACorwa9owNucjGBjByP0EoMeovS82679YnpK2vhrevd6bdNuJjw4a3pnguiqwWu7XFG3ICAqgjGCQOWIwPXHridbaye7MUjbffnrPPXby3ccekpS2+8z048OOk7ecb/l4MzxFpbFKa7TqXu0wO6te99DYNtPzbgMn8SgZAZpDS2z0errtrS6pg6WoHrYdmVhkEflAfAx211ItGnNi+ayGwV597YpALY9BkiZ28Tc8zAhgCYAwBMADAU5gK3fSAxYDFgGDAtYDBAKBcDzX2wOd+lX0xdk+gYmrYCfQnDY+O047Sf2fNe/MT4wr+0It3ImPCf0Y/hbx69WKdaTbX2W3vYn84/bX5/i+vp11Gh/ux/p9HPT6/8Atyfr9fq6/rOoTWGnRUsLK9Qv2jVMpBX7KhHuZ5H3r4THqot9VlXMbLOJ35h0sMtZ1vWPUK2U8G0BwMGxgRwKweGOcZHfGccwNfX4mY43Ubc424Yn3iU+6b3BiwbmJHONvc84Af7S3BNx0wU7a2CG0g4sAO4lkACDO0t+8CMepDI1fVrFZiw2bKFtrqxk3MVYsPMwc7cAYUZHfkECBr9X4pvDV7NPkB7d4VmY2IlOqINf3f8Aky1NXv8AH4wMHI3B0nTdSba1sZQhbPAYOOCQCGXgggZ/OA8mBz+l/uep8k8afWO1mnPYVag5e2n5LZhrF/iFgzyogaHxX7QFTNOhIduzXd0X/Nj9s/P8P17Sdp9FbJ71+I9ZQNTra4/dpzPpDnfZzqGbqW92Ls1NpsYkk5bbgsfntwPpx2nfX1pTHWleOejhoJvfJa9ueOr2AyqWwcwIYAmABgLYwEtAHEAlMBgMA1gMWAYgEIGD1fq+n01Zs1FqVADjeyrn5DJgeXaz2i6C7UnT7l1CWAiw4JUn4AMMMoX+gmRj9U8Ne79o0J86phu8sHc4+dZ7uP4T73w3ZwLLT67b3cn6/VWajQb+9j/T6MHw11+7RWG2jawswLkPawKTgE91YZbn0ycgyXn01M8d6Ovmh4NTfBPdnp5fvo9g8O+JNPrE3VNtdRmytuHT8vUfMcSmy4b4p2tC6xZqZY3rLb5nJ1cp07xY52LbUS1pBXYNoCFaSW5Y5Gbhg5GQr8Argg/T+MKn24rPvFOzoeLPJ27SDhiPPTcB2wefw7gpfFYyG8sbCjFvewUZTjbzwec5PG0KTyBmA3+1SbS/kvtFnk5BXBtLOiKvPIZ0VVbjJtT4nAb8mBh9U6nRpqzdqHFajtnkk/uqo5Y/ITatJtO1Y5a3vWkd608PJvF3i+3W5qC+VRkHYcFnwcg2Ht6A7Rx8zLfT6KtPevzPpCn1Gutf3acR6ywuh+HrNQBY58mnG7fxucf+2Dxt/jPHwDemNRrop7tOZ9GdNoZt71+I8v30Z2p8adN0Lppq8Imcsygkk8YbPLMec7zn8OPSVNrTad7Tyt61isbVjh6R4d8S6TWJ9xqKrmHDBGBPbvt7iatm6xAowBMAGMBRMBbQAgRTAYsBywDEAxA8l9tntCbTL/6dobSl74bUWISGpQ8qisOVduDn0H83AeSdK8I9W1+NQtb2LZn7658BgMgnc53MMgjIBgdf0z2S6ioec+oR7EBK1JuAJxx96cH+n5wMvp3Vr9K7AAoQSban4B/Eec9v2VDAn6TI6S/SaXqANlJFGoH4wR+LHH3i/tDjAcc8DuABJGDU3wzxzHkjZ9NTNHPE+bnadPqqrwiJal9ZyvlBmb+ZCoO5D8e3ofUSznPgy4/enjy8f38FXGnz4snuxz5x0/fxey+FtTrbKc66gUWA4HvKS4x+IqpIQ/LP6dpTZIpFvcneF1jm819+Npbhq1IwQDNG4aqUUBVUAKMKPhxjiAWwdsDjtx+UALdMjbdy52MHUegIBAOOxxnjPY4PcCAjqltyVO+nqF9gGa6ywQMf5jx+uPqO8zG2/LE77cPEvEOo1tl+dalotY7a0KEf/GlRwR/KT2ySe8usF9PjpvWfj5qTPTUZL7Xj4eTbaLoVGmT7R1AqSOVp/Eoxz7wH+Vb5fhH8XBkHUay2T3a8R807T6KuP3rcz8mr694jtvO3muvdgID7zHPGSOSeONuR8cSGnMDU+zS7VqLzYNM+wKqOucgZ/EFOE/IflMDlOq+zjq2nO8Ui8L726htxGOeF4fPrwIHU+x32kW03/YuoXvbVqGC1WWuWNNnYDcxyK24HwBweMkwPoIwBMBTQAMBbGAvMCKYDlMBimAwGBzvtA8THp2is1SrvfiqkH8PmPwpb+Ecn54x6wPnLwn0azqWtNmpZrE8zztZZn3m3HJUH95jn6cn0m9KTZtWu70v2oeKNdR9nXplBo0ulUEsFVlJAKipkGdtar8cZJ+IEWx2qTSYZvhnxSOp6feFOnsrsWtlPFb2FSyiuw92wrHb3H6GaNWx8Q9N8zSWW2jF1VFllbjhwVUsoJHflRmB5L7J3st6glTWMQyO2MnllHGOe/JH5wPp7p2k8tcH8R5b/AID6CBlwJAkCZgSBICtTQrqVb1/UH0IgfPvt1rsoto22Opt3lgGOPu9oUr8AfMb/AMEDeeyvpyvoq9W4D3HzERm52hXYDA+Pz7wNz1Hqn2Kq3V6gs/lqpatMM+GbajN+4u7jPbn8oHG+C/aN1K3qAvaotpW+6srQDbWhOd4dsbnHBPPIyMDjGl8la9ZbVpa3RzvtW6NQuobW6KtkpubNikABLD3IA7I3f5HI+AmuPNW87Q3vimsby9W9iXjKzXaZtNqMtbogi+YefMrbIQk/vjaQc9+Dyczq5PRyYAMYCmMBTGAG6Bi265UdKyrE2EAEDIH1P/D8+wOAz1MBqmAe6BofG+hrv03lXILK2cb1P0ODkcg5xyJ0xREztLekRM8vEfE3iavp2dB0utaipzc/4sMR2G7O5sY5Ocdvpva/d92ra1u7xDlqvG/U1bd9qZviGCsp+W0jGPpOf2lvNp35b53fqmlUaTGnu0Ra06asBK7GdstfXjnzMgDknGFAx67bRfmOrO3e6O89n+s1+o6Xqb+oFRVVXZXXbZ7ruqqws3Z4IU8Z7k5HJE5NHAew+wDrOnz+0tyj6+S5/wCED6lgSBeYAkwLAgXAkCoHg/8A+SzDzdEPUVXH9WTH+wwMnwg+sTw6NR09UutpNu5T7zKPNYuQg7sFIYA9x6HgEOB6TqNRTv6trLWc31vUK2wTqVtUgq4bI8vHOMfsgjsM8bZJm3cq61pER3rNNd4q1Z4rcUIvCJUAqqPh8T+czGGnjyTlt4cNn0Xxe7HyNaBdVZ7rMQAVB9Tjgr/X1zOd8EdadW1M09LdHs/ss6TTp2uGnrCKyLvwSSW3HbljycDd+pmMF7WtO7bNWtYjZ6ETJSMWxgLYwEuYC90DS9SI+06fOOCccL8R8SD8O3rg84MDfqYDQ0DE0F172WFhsrSw1qpX3mwPx5z6nJ9QVK+uQAy3Wu6sqGDK2VyORkH0+hH9Jms7TuzE7Tu+QvElTpq9Sln4l1Vyv/MLGB/rEzvO5LWzDDsPZbv+3pt7Gqzf/Lj/AJts6Yv5m9Orfe1Pxu9if+k0sPKqbN7D9pgcir+VTyficfu8su3e4L7bu39hfgX7PUOp6lMXXp/d1Peulv28ejP/AEX+Yic2j1uBeYAkwLAgXAkCiYA5gcd7UfBS9T0hVABqKMvpmPqf2qif3WwPoQDA8E8BeMNT0u62klkruzTejDBqcHHmAHs68g/In4Ca337s93q2pt3o36Mj2msf7vjlSHIx2J93H9JG0vi76jwcMBJaMZ+HiB9Yez/ppo0GnD58yyiqy3Pfca190/Tt9czSlIru2tabK1/XGL7aSyGoFiGrYixsjbUxAJQMN+MDdkDjja27VuksJUMVKEgEqcZXI7HGRkfKADtAQzQF5gabqGDqaM447cc9+cHaQOw7kd+OYG/VoDVMAraldSjjcrDBHb+o5H1gc5rNJfoy92ncshrPBVWWsIxZVYFgxrCs+Av7qqNg/EHEe0L2eHqLtrenkLqVAXV0WMil2UbRYrISgY7cHnacHkEEEPOE9m3Wi206C0YPJ93b/pZwfygejeB/BT6JWaxS19o2ttU4Re+xcjJ5wSfkPhJOOsV53dqxEMXwh7F9QNWt3UGrfToxs2ZJe4g5UOpHug92yT8PXIjzG0uUvdhMMLzAomBBAKBIFEwBJgWIEzA8k9qnsqs1t/23p5rSxxjUVudocgcWKQD7x7EHGcA/GBzmu8G2tpE0VyOHqUbX2Nww+HxXnH0kDvWrkm2yb3a2ptu46z2ddXX8OhtsB4DKMg/rggfUCTa270bodq7Ts6nwb7K7EsXVdZ20VV7rBQSGe3yxvIYLkBcAkjOSAePWbMPVeoXW6q37MB5Kc+YlgU5CFcnaRkspZTwxAwncPkBvNJo66gRWu3Jyx5LMck5Zjyx5PJJMA3aAljAS7QFb4Gq1lqC6rJXfyK8lwfe4PC8EcevwMDdo0ByNAcrQDBgaPVdDdWFtFmCri0qQMHaWIChRwApC7RjKjGRuYkMno3XUs+6tZVtRUWw/gVrTlXVFY5/EjYGTwRznOA3gMAgYF5gXmBIF5gTMCZgCTAsQJmBWYFEwBJgA5ODgZOOBnGfgM+kDlKtNdrX8233KVGKtyLuyWBfaQ5KMNgXd/N+IMNgdFTSlahK0WtR2VQFUZ74A4ECnaApjAU7QMexoCt0DTdQ1H31KfxZP0JUDPxGV+mdvyyG+R4D0aA5WgNVoDA0DXdQ6V5rk7gFtrFN4x73lgsxFbfsls7WPfGCMECBtlMAwYE3QCBgXmBMwLzAmYFQJmBWYFFoA7oFEwNb9jZb2ur24uRFuLFi48suV2emDvIxkAYzg5MDMJgAzQEsYCmaAh3gY9jwE74Gq1mpYW0qCwBY7sEAHsMEd/Ufrj14Dd1vAejwHK8ByNAarQDDQDDQL3QCUwDzAvMCboEDQLzArMCZgUWgATArMCi0AC0BbPAWzQFM0BDvAQ7wMWx4Ct3zgay+lmsrcYwh945Of07Y7c9+TA3FdkB6WQMhHgOV4DVeAwPAIPAYpgGGgWGgXugVugEDAvdArdAotAHdAm6AJaABaAtngLLQFs0BLvAQ7wMayyBi2WQE+ZAqqBl1wMmvtAekB6QGiAwQCT/z+sBogEIBQJAtYBQJAkADAkCjAAwBaAswFGAt4CHgY9kBD9v1gYdsBMD//2Q==;" parent="sDxwQ0sw2mHXU_9sSDiu-25" vertex="1">
          <mxGeometry x="613.75" y="70" width="72.5" height="72.5" as="geometry" />
        </mxCell>
        <mxCell id="QxuZdcqgp66eboORH_xr-12" value="Developer check Changed &lt;br&gt;feature&amp;nbsp;through URL" style="text;html=1;align=center;verticalAlign=middle;resizable=0;points=[];autosize=1;strokeColor=none;fillColor=none;" parent="sDxwQ0sw2mHXU_9sSDiu-25" vertex="1">
          <mxGeometry x="570" y="25" width="160" height="40" as="geometry" />
        </mxCell>
        <mxCell id="cz5juMuSYhJdmRvGYrTa-66" style="edgeStyle=orthogonalEdgeStyle;rounded=0;orthogonalLoop=1;jettySize=auto;html=1;entryX=0;entryY=0.5;entryDx=0;entryDy=0;" parent="1" source="cz5juMuSYhJdmRvGYrTa-23" target="cz5juMuSYhJdmRvGYrTa-10" edge="1">
          <mxGeometry relative="1" as="geometry">
            <mxPoint x="770" y="595" as="targetPoint" />
          </mxGeometry>
        </mxCell>
        <mxCell id="sDxwQ0sw2mHXU_9sSDiu-43" value="Request to merge the current&amp;nbsp;&lt;br style=&quot;border-color: var(--border-color);&quot;&gt;developed work also attach unit test case screenshot" style="whiteSpace=wrap;html=1;" parent="1" vertex="1">
          <mxGeometry x="770" y="560" width="170" height="60" as="geometry" />
        </mxCell>
        <mxCell id="cz5juMuSYhJdmRvGYrTa-64" style="edgeStyle=orthogonalEdgeStyle;rounded=0;orthogonalLoop=1;jettySize=auto;html=1;" parent="1" source="cz5juMuSYhJdmRvGYrTa-6" target="cz5juMuSYhJdmRvGYrTa-10" edge="1">
          <mxGeometry relative="1" as="geometry">
            <mxPoint x="1090" y="520" as="targetPoint" />
          </mxGeometry>
        </mxCell>
        <mxCell id="sDxwQ0sw2mHXU_9sSDiu-44" value="Request to merge the current&amp;nbsp;&lt;br style=&quot;border-color: var(--border-color);&quot;&gt;developed work also attach unit test case screenshot" style="whiteSpace=wrap;html=1;" parent="1" vertex="1">
          <mxGeometry x="770" y="355" width="170" height="60" as="geometry" />
        </mxCell>
        <mxCell id="cz5juMuSYhJdmRvGYrTa-67" style="edgeStyle=orthogonalEdgeStyle;rounded=0;orthogonalLoop=1;jettySize=auto;html=1;entryX=0.5;entryY=1;entryDx=0;entryDy=0;" parent="1" source="cz5juMuSYhJdmRvGYrTa-30" target="cz5juMuSYhJdmRvGYrTa-10" edge="1">
          <mxGeometry relative="1" as="geometry">
            <mxPoint x="760" y="805.0000000000002" as="targetPoint" />
          </mxGeometry>
        </mxCell>
        <mxCell id="sDxwQ0sw2mHXU_9sSDiu-45" value="Request to merge the current&amp;nbsp;&lt;br style=&quot;border-color: var(--border-color);&quot;&gt;developed work also attach unit test case screenshot" style="whiteSpace=wrap;html=1;" parent="1" vertex="1">
          <mxGeometry x="770" y="775" width="170" height="60" as="geometry" />
        </mxCell>
        <mxCell id="QxuZdcqgp66eboORH_xr-33" value="" style="edgeStyle=orthogonalEdgeStyle;rounded=0;orthogonalLoop=1;jettySize=auto;html=1;" parent="1" source="sDxwQ0sw2mHXU_9sSDiu-64" target="QxuZdcqgp66eboORH_xr-32" edge="1">
          <mxGeometry relative="1" as="geometry" />
        </mxCell>
        <mxCell id="sDxwQ0sw2mHXU_9sSDiu-64" value="210" style="swimlane;whiteSpace=wrap;html=1;startSize=23;" parent="1" vertex="1">
          <mxGeometry x="1540" y="910" width="290" height="160" as="geometry" />
        </mxCell>
        <mxCell id="QxuZdcqgp66eboORH_xr-26" value="" style="shape=image;imageAspect=0;aspect=fixed;verticalLabelPosition=bottom;verticalAlign=top;image=data:image/jpeg,/9j/4AAQSkZJRgABAQAAAQABAAD/2wCEAAkGBxMSEhISEhMVFRUXGBUYFhcVFhcVFRUXGBYWFhgVFRcYHiggGRolGxUZITEhJSkrLi4uFx8zODMtNygtLisBCgoKDg0OGRAQGy8mIB4tLS0rMTItKy0tMS0rLS0tLS0tLS0tLS0tKy0vLS0tLS0tLSstKy0rLSsrLS0tLS0tN//AABEIAI8BYQMBIgACEQEDEQH/xAAcAAEAAwEBAQEBAAAAAAAAAAAABQYHBAMBAgj/xABREAABAwEDBwgFCAUKBAcAAAABAAIDEQQSIQUGFDFBUWEHExUicYGR0TJSU5KhVGJyk6KxweIWI0Ky0iQzNENzg7PC4fA1lLTxFzZjgqPD0//EABoBAQADAQEBAAAAAAAAAAAAAAABAgQDBQb/xAAsEQACAgEDAgQGAwEBAAAAAAAAAQIRAxITMQQhIkFR8AVhcZGx0YGh8TIU/9oADAMBAAIRAxEAPwDcV8vDevqhbVNdOCtGNgmbw3peG9V/TTxTTSr7TJosF4b0vDeq/pp4ppp4ptMUWC8N6XhvVf0wobaeKbTFFgvDel4b1X9NPFNMKbTFFgvDel4b1XzbTxTTSm0xRYLw3peG9V/TTxTTDxTaYosF4b0vBV/TSmmnim0xRYLw3peG9V/TSmmFNpiiwXgl4b1X9NKaaeKbTFFgvDel4b1X9MKG2lNpiiwXhvS8N6r+mlNNKbTFFgvDel4b1X9NPFNNKbTFFgvDel4b1X9NKaaeKbTFFgvDel4b1X9NKaYeKbTFFgvDel4b1X9NPFNMPFNpiiwXgl4b1X9NPFNNKbTFFgvDel4b1X9MKaaeKbTFFgvDel4b1X9NKaaU2mKLBeG9Lw3qv6aeKaaU2mKLBeG9Lw3qv6aeKaaU2mKLBeG9fVCWaYuKmgqSjRB9REVQCoHKKnioHKOtdMXJKOFERaSQiIgCIiAIiIAiIgCIiAIoLL2csdnq0Uc8axXqt7ePBU60Z/TVwcBwaxpH2gVox9LkmrSJSbNOcaYnALn0+L2sfvt81lttzvknZzcrqtrXBoaTTVWmxQsjZHGscwNdhaB3alZ9HkXKDTRtmnxe1j99vmmnxe1j99vmsDmtczDRziDxDfEYYhfjpKT1/gPJcdtlbN/0+L2sfvt800+L2sfvt81gHSUnr/AeSdIyev8AAeSbYs3/AE+L2sfvt800+L2sfvt81gHSMnr/AAHknSUnr/AeSbYs3/T4vax++3zTT4vax++3zWAdIy+ufAeSdIy+ufAeSbYs3/T4vax++3zTT4vax++3zWAdIy+ufAeSdIy+ufAeSbYs3/T4vax++3zTT4vax++3zWAdIy+ufAeSdIy+ufAeSbYs/oOK0Md6L2u+i4H7l6LFczrfK60xgEl15pFB1qXgHCg1ihW46HKdUZPgPvKpLw8k2eCJNDO2pMD6cC1x7g0krhjytGSWuqxw1teKEdoVU74B3IvjXA4gg9mK+qQEREAREQBERAduT/xU8FA5PU8Fny8kM+oiLkQCoHKKnioHKP4rpi5JRwoiLSSEREAREQBERAEREAXHle28zDJJtAw+kcB8SuxVjlCmLbM2m14r2Brj99F0xR1TSJMuypbHSPNTXEntJxJXEhKnc081Z8oPkbDdaI21c99Q0E1utwBNTQ9wPf78pRxxuXZI7dkiCX0GmpaZmryTOlY2W2SGMOALY4iC+hFRfeQQOwA9q/fKFmlYbDYnOhjeJTJGwSPc866uLReNDVrXYtGxZZfEMKlpXd/Lgq5ozmG2OIpfkBHqMDvEr0593tJ/qh5rhyawkuoJDgP5t10967uZf6tq+sHks7m5vV+zndjn3e0n+qHmvG+7nL16b0aXuaF7XWlNVOK9uZf6tq+sHkvkkElDdbaa7KyCnfQKO/uwfHvJIJfOSDUfqhgdW9NJcRVskx3fqhTxqv0IX0xbaa7f1gp9y9Icmy06sVqDd/ONYzEtHpEBoxe2prheqU7+7BwysDutKZa0FTzeA76hc0zY6dRzieLQB41UqbH1i2R8xFxrrjXGSTEtONQGUo4il6ocwg0wKaDENVntDvpvYB23WCv2jtVGr4X5IogyV0NsUhaXXCGjC86jG16+F55A1xvGvW0jXgpdwdQhkMsYNcGCNpxDxQvu3yKPIoXGopWtAoi1WaQEvkDqkmrnYkuNSSScSSamu1VcWiKP0bMxpIfM3DD9U0y1xoaElrThj6WKsuY+anSE5bHG7mWFvOyyuJa3FjrjWx3avIDhS8aNeDgQL1WsVlfNJHFGKvkc1jBvc4horwqda/pjJmT2ZNsTIoIpJubAq2IN5yVxIvydZzQTUk69QoNQCz5smlUuWQfiz5NsWSoHSNjEbGBgkkDKvPox35C0VIxq46hi7erA1wIBBqDqI1EbFl+Ws6obOZZ2uldFNzkVpsM5c2VkxYC10bXg820g9bG5RwIqcDHZlZ4WuZ9gskd2O6I2tY4iTnoGAX3yuuhzHc21xYQQHEYtoQVleKTWoGwriyrkmK0NuytrrAcMHtrta7WF2hFyToGZ5RZNk+RrXm/C8nm30pvNx2wOp46xtpOWS0CRocP+yseWMmMtML4ZNThgRraRi17eIOKy/Nu2OhlfBLg9jix2JpUOu1HDaOB4rVjlqXzJTLmiIrEhERAEREB25O196ngoHJ34qeCz5eSGfURFyIBUDlH8VPFQOUV0xcko4URFpJCIiAIiIAiIgCIiAKq8o7K2Zp3P+9rlaly5TyPpcboAaE4g7ARqJ4bO9dMU1Cak/IkwRbByGykQWlpjdQzCkgFWk822rK7LoAOOHX3qvWLkntrpbshjjirjIHXzT5jBrPbRbLkbJUVlhZBC26xgoNpJ1lzjtcTiTxWv4h1eOWPRF22WnJVR1RRhrWtGoAAdgFFnXLXktrrK2doYHslj5w4B7mXZWNbvNHTVpxcVoVpvYFmNDUtwBcKEUBOo1IPdTCq/mjPXKelZRtM+y+WM1GjIxzYoRsN0n/3Ly+ni3O/Q5EJA9oreZe3dYtp4Lv0Zvso/r/8AVRdV1aYPZRe6fNejFrzJR16M32Uf1/8AqujJ2RTaJGQRxxh7zQO569dGsvLa4gAE04KM00eyh90+asnJpa2i2tYWsBkjmYx1DW+5tQK11UBHgkpKu3v+hJ9i22LJVjsxDYbNFK5lDz09Huc4ftMBNGYjCi/GU827PbLxEEcdpu/qyx5Echa2gjc0Hq4AAEaqcKL66WmBY0EYEUOB3a115IcXTRANaOsCTQ4AGpOvcFm1d7KNJKzLJbKGkl0TAAKFvO4gg47a12UTRQSCI2Upq54Y11GtahfrLeUGST2hzGR3Xyylrg01LXPcQ6tdZBr3rmFsHsovdPmtVr3/AIdLR16M32Uf1/8AquU5Pd8wf3jPNeE0l41utbwaKBeahte/8ItF15HrEJMqRE/1TJZB2gCMf4te5f0Mv5+5F7QGZUaD+3DMxvE9WSnhG7wX9BFed1P/AGQZ3yn5oT218M0DBIYg5gie5rWkuLTzhJNHNFMWmlSBsqDVM382BA202m1RMtro3OjtkFXc5AzqSc7GCBzrqAPqKCg6pOK24f72qPhyU1lpltLSb0scTHtwunmjIWuG2v6wjsAVY5Wo6Qc2RLCyzRPdFJLLC4c5ExzucLGltbkTndYg6wHE0qvCbPWwNaxzrSxt6uBvBzLtLwlbSsVLwrfApVSWV4r0Dw1srsAQ2CQRSkgggMeXNA1bTQioNQaLHM+s3LVNa420POWiBscTJpo3TAsmvuvEUaQGkuIZepWm1RjipvxMG2aQy8I77b9C67eF66CAXXddKkCvELKs+YhFlQkVAkjjkNN4vR+NI9fFW7MiyBnOFnMtbqewWM2a1c5hjO++WyHB3WDaOrUHfUeUSa9lNoH7EMYOyhvPfr7HDxV8SqdAtdkkvMa7eAvVcNgtrC1jQ68aahiOOIwwXcuzi1yTGSlwwiIoJCIiA7cn/ip4KByfr71PBZ8vJDPqIi5EAqByjr71PFQOUV0xcko4URFpJCIiAIiIAq7l3PSy2YlhJkkGtsdDd+k44DsxPBQXKFnY6MmywOo6n6141trqjadhprOzVvpmMj6rpGF8kNmhy8qZr1bKKcZsfgzBSuSeUqzSENma+An9o9ePvc3EdpbRZGivoQs3p+XmEVjF8HU6tGniN66rBnVzeHMg11kPx/dWI5By2+zOpi6MnrM/zN3H71o1mnbI1r2GrSKgrXiwYMkaa/tnznxDqOt6ed6vC+KSr6eZo1izjgn6hcY3HCjur7rhhXvqvEz2iGUtdK2RlMLzReFdQJFFQ1J5NymWkNeat3nW3/T7lxy/D1HvD7fov0XxjVJQz/f9/s9OUbOW0R2YticI74kBc2oeBd/ZdXqniMVhcAxH+9i1zlO/mGf3n7iyOHWP97FwxJJdj6AkIrQKD9aBgMOYBpwrTFJJGupWYYEH+YpiOwL8WK1SHC9MQAKCMXqdu4Lq51++1+4PNal3Xv8AZY8tIHtm/wDLjyX4ZayJA4SgFoq14hAINQRQU1igNV0c6/fa/cHmunJNhfaLRDE02oOkc2O8WAXWl2JJOwCp7kfv3YNBzLymcoB3Ox3jGAH2hjeba52xrmuBBfTE3fAVCrmXs8Y5InxWR4ga5rg8vje6aUUd1AQ260EADteNgJW25PyRFAyNkYIbG0hoJrUmlXur6TjTWd53rJeUzNV9lkNphdOYZXGrYheELjiainVYTq44bljxZYTnXHp7s5qKso8NmcAGtljdTCjGRyHAkYU6x9EmtMRQ6iF4W2MgXZXln0rOYzgAdwOpw8RvXnNAXuq5tocKayyrq/dSi9WymMA3rWwAgioo2oLXDAmmtjT2tG4LV4vd/sucfMRe2/8Ajd5r8yxMAq2S8d1wj4ldcVqhGBaXigFHRRjABo9Jha7U2la7SdZqvO0y2cjqRyNdwfRuo40dfJxphUYDZrVX9CD85Eyk6y2iG0MxdE9r6esB6Te9pI71/U2TrayeKOaJ15kjQ5p4EVFeP3Ffyu2OE/1j2el6cd4a3lvWY6uoRj0db3bG1N95Mc8DYnaNLJHJZXuwIfdMDnGhIbLdJYSakAYYu31y58epWuUQbmQqvn5nLHZIbhMgkla4MMQvOYBQOlpUGjbw1V2Kx2W0slY2SNzXscKtc01DgcagqqZ35rm1uaZr0rAXPaWdQ2drGEhsIabz5pHltSatpHqBpeyQq+4O7NXOPTKuYC+N197XtFI42AtayJziBelNHOc0VuaifRrYVB5oZBbZIQAX3ntYXtc4ODXgEupQCpLnGrjUnDHAKYtErWNL3uDWtFS5xoBvJJwCiVX2B+bXbGRMfJI4NYxpc5x1AAVJ8FhML5bfa5JrtXSvLg12pjNTb1Nd1oA7uKnc9s6XW5ws1nvaOHDGlDO8HDD1AcQNpodynM2siizR9al92Lju4A7l6GCGzHXLl8Gab3Xoi+3mSGTrC2JtBi4+k46zwG4DYF1Ln06KtOcZX6QXu1wOINexVnqbuXmaMehLTDhH1ERULhERAduTvxU8FA5P196ngs+Xkhn1ERciAVA5RU8VA5R/FdMXJKOFERaSQiIgC4cu5RFms8sxp1W9UHUXHBoPa4hdypfKnaaWeKMH05KniGNOHi4eClK2DK7ZMXOLnGriSSTrJJqSe8rmX7l1r8LQVCIiAK1ZkZTLXGB2o1LeB2j8fFVVe1kmuPY8bCD3bfhVXxz0yTM/VYFnxSg/4+prSLzsz6tBXovUPhmqdEdnnaL1kY06284O65h5dyzOHWP97FpmXYb0dfVNSOBw/FVE5Ji3EdhXmZkoZH8+59j8LzbvTRvldvtx/VEAx5GokdhouzS2erL9afJSXREfzvFOiIvneK5rJR6NkbpbPVl+tPktZ5G83K1t8jHtBBbBfeXVB9KUCgoD6IO0F2wgnmzJ5L45LtotbXc3gWROP85uMg2M+bt24YHTMuZXiscBkfgB1WMGBc6mDGju7gFmzdQ5LRHzFkk9wAJJAAxJOAAG0lYtykco7J79ks1XQYCSVjrvOkGt1hoeoCB1h6WzD0vHLWd9qtImY+S7FK1zHRNa26GuBBAJF6pB118FB2rM4xxMmcOo6lKOxF4VFRTaq4sag7lyQVqS1NoaCQHYTKSB3UQ2mMihbIe2X8qlOiI/neKdER/O8Vr3CbIrnIfZv+s/KnOQ+zf9Z+VSvREfzvFOiI/neKbgsgF8Vg6Ij+d4p0RH87xVdSIPuZ+XLRZXSGCVzBdLi3WwmoxLDVpPGlVr+Qc77VJZYp3RRyFwN65ebqJGoXjs2LJY7IyNrro1g1JxOorTMwx/IYOx37xXOSi3bVkNNrs6JH9MZpKBjYo3HAXyXAnVg4ENJ4FVe2utE0jtLmc+4JKNwDA5ovNLWABuIpQkVwVlylklstSKNfvp1XcHjb26wq5PE8OLX1r1Qa66DqUJ24PGO0UW3psOCVuP28/4PM6rLnx1f3XH8/M/WRoGQ/rSK3Oqxu10hFXdlAaVXQ2Oa1GpNW11moibwa39s8Sv1kiwGbF/oCpNNt43ro7agnhdG9WdjQAABQDUBqCtnzrHJ13l+CvTdNLNBanUfz9fx7s4LJkeNnpVefnej3MGAUgAiLz5zlN3JnqwxwxqoqgiIqlwiIgO3J/4qeCgcn/ip4LPl5IZ9REXIgFQOUVPFQOUQumLklHCiItJIREQBZ7ytg0sv99/9S0JUrlVhrZ4X+rJTucx34tCtDkMyV+tflekutea7lQiIgCIiA0zNyS9A08B9wUoqzm3OWQxnYQB3jZ8FZI3g6l6mN3FHxHWY3HLL0tn2RgcCDqIIPeqi6w2uppZXuAriK0IG0dXUVd7DYnzOuRtvH4Ab3HYFbm5KdC2Nlb5I1gba1oOGKx9bOCpeZ63wLXcu3hfn8zGhYbZ8kk8D/CtKzEzHLA20WxgEmtkNbwZudJsL+GocTqueT8nhnWdi74Ds48V3OdReTkzX2R9Cfi0zhjXPdqaCTQVOG4DWeCw/OrKdutsxebJKI21ETMeq2us4ekcCfDGgWq5Rtl80Hoj4neuIlTijp7smjHtFtDcZLO+Nu1xrSuwal0zZQlexsTnksb6LTqFMBxPer3nof5I/wCkz94LO135DPKystEoLo7M97akVFaYcaL10K1/JJPB38KvHJyf5If7WT8FaUcqYox7QrZ8kk+P8KaFbPkknx/hWw1Xy8N6jV8hRkGg2zVoknx/hXzQrX8kk+P8K2C8N6XhvTV8hRktmyHbJjc5h0YOBc7Cg20qAtRyVYhBDHEDUMaBXfvK6bw3peG9Q3ZJE522p8VjnkjcWva0FrhSo6zRt7Vks+cdrfi6d5OGxuw1Gob1qmfH9AtP0R++1YsV6nQRW23XmXUYyVNWWHNzOS1m02aMzvuOlYHNo2hDni8DhtqtlWC5tf0yy/20X74W9LF1K8RSkuyCIizgIiIAiIgO3J5x71PBQOTtangs+Xkhn1ERciAVA5R/FTxUDlFdMXJKOFERaSQiIgCrfKJBesMnzXRu+2Gn4OKsio3KDnSyO/YubLnSMF5966GXj1aChLiKV2bMVMeQZZMMV5L2mXitBUIiIAiIgL9mgwPst06quH2jirJmtm/LM914hkTTQuqKu20YOzacBx1LOshZxmzMLObv1JNb92nClCrTmvyjCKdokj5uJ5DXuv1ubn0ujAE48Cdy0Ty1i8D8SPC/8OSXVSc43CTvlfuzbsn2GOFgZG0Abd5O9x2ldK8bNJUL1c6i8KTbds9uMVFVFUkHOosvz45T22ed1nhiE13CR3OXGh3qAhrrxG3ccN9JHlAz/ZYXNia3nZXUc5ofd5thrQuNDidg7ThhXhyVkawWiGOdtkhAkaHUdEy8K6weNarRix14pIuiq/8Aiq75G3/mD/8AkoXL2ehtTmuMFy62gHO3hrJJ9AcPBaf+i1i+SQfVN8l+Js0rE5pbosLailWsa1w4g0wK0ao+hJkAy2PZfb/KnTn/AKf2/wAq0lubbIcHWGz2lg1PaxjZafOaRRx7Cv1zGTB/OWJsf07Kf8rSp1R9CKM0OWx7L7f5VO5D5QXWaMxizB4vFwJmLaVAFAObO6vera+LJBBHNQioIwgdUV2jqa1H5NjsTWtifYWSS1LWkQsbzoGp9X0INNaXH0BX8vZ+m1Naw2cMDTXCa9XCmI5sKE6aHsvt/lWmx5oxyuBkstngYDW5G1pkdwe8CgHAKQteQMnxNL5LNZmtG0xs+GGJ4KNUfQUZF00PZfb/ACp00PZfb/KtPyRm1ZpXPmdZImxuoIozG0dUf1jm0wLvuX6seblkNqtLDZoS1rYbo5ttBVrq0FMKpqiKMu6aHsvt/lTpoey+3+VbH+i1i+SQfVN8k/RaxfJIPqm+Sao+goy/JOeIhZNG6zCVkoAc0ylopRwOph1g/AKAltMZJuxvaNgMgcR382K+C03lAyFZYbBNJFZ4mPBio5jGtcKzMBoQNoJHeozkuyRZ54ZzNDHIRIAC9gcQLgNBVdceZwTcSU2ip5v5YjssrZjZzK9voXprjWnVeoIzU96umT+U/nJY43WW6Hva0ubNeIvENBumMVxO9W39FrF8kg+qb5L0s+btkjc17LNC1zTVrhG0EHeDTArnKal3YJNERcgEREAREQHbk78VPBQOT/xU8Fny8kM+oiLkQCom0WYuOrBSyK0ZUCE6P4fevnR/BTiK24ybITQOCdH8PvU2ibjFkHoHBQ+W8x7Na3B80VZGijXhz2GmJAN0i8ATXHeVdERZZIWfyXaG79Y19u5cynM67PctdqZ6s0wHYJHU+BCg16SdogIiIAiIgLJmjkmG0CTnWklpFKOc3Aj5p4fFWH9E7J7M/WSfxKF5P3deYfNZ8C7zV1W/BCLgm0fK/EuozY+plGM2l2836IuOa73tssYbUhlWDEuNG4NqTiSBTWumHLjJZzZg8c+1pe+Mek1oLRV9PRrzjcD61QvLMKT9XK3c8HxaB/lVZzb/APM2U/7Afu2JeNnxpZZr07nv9DkeTp4SfNfjsd9t5OLFLI+WWKR73kue4zTdYnXqf8BqVgs+SGxsaxjA1jQGtaMAABQABT6LhuyNlkJ0fwTo/gptFG4xZBjJ/D7190DgVNom4xZCdH8F4WzIbJW3JGB4+ds7DsPYrEibjFlM/RAD0JrSweq2UkDsvAkL1s2aULXB7g+V41Olc6QjsBwHgrcibsgQnR/BQuTrHW220U1Ns3xa9XVV7JP/ABHKH0LL+7IpWR9xZ7dH8PvTo/gptFG4xZm/KrY7uTLQaanQf9RGobkUs1+z2o7pW/4bVbOWP/hNp+lZ/wDqYlA8gX9Gtf8AbN/w2rupvab+f6Isu+gcCvvR/BTaLhuMmyEGT+H3r5oHBTiJuMWQnR/BOj+H3qbRNxiyE6P4J0fwU2ibjFkRDZS06sFLBfUVZSsgIiKoP//Z;" parent="sDxwQ0sw2mHXU_9sSDiu-64" vertex="1">
          <mxGeometry x="49.84" y="40" width="190.32" height="77.1" as="geometry" />
        </mxCell>
        <mxCell id="QxuZdcqgp66eboORH_xr-28" value="Tester perform testing on developed&amp;nbsp;&lt;br&gt;work" style="text;html=1;align=center;verticalAlign=middle;resizable=0;points=[];autosize=1;strokeColor=none;fillColor=none;" parent="sDxwQ0sw2mHXU_9sSDiu-64" vertex="1">
          <mxGeometry x="35" y="117.09999999999991" width="220" height="40" as="geometry" />
        </mxCell>
        <mxCell id="QxuZdcqgp66eboORH_xr-18" value="Send all chages and Binary to 210 and 103" style="whiteSpace=wrap;html=1;" parent="1" vertex="1">
          <mxGeometry x="1872.5" y="700" width="130" height="50" as="geometry" />
        </mxCell>
        <mxCell id="QxuZdcqgp66eboORH_xr-35" style="edgeStyle=orthogonalEdgeStyle;rounded=0;orthogonalLoop=1;jettySize=auto;html=1;exitX=0.5;exitY=1;exitDx=0;exitDy=0;entryX=0.5;entryY=1;entryDx=0;entryDy=0;" parent="1" source="QxuZdcqgp66eboORH_xr-29" target="QxuZdcqgp66eboORH_xr-32" edge="1">
          <mxGeometry relative="1" as="geometry" />
        </mxCell>
        <mxCell id="QxuZdcqgp66eboORH_xr-29" value="103 (VM1)" style="swimlane;whiteSpace=wrap;html=1;startSize=23;" parent="1" vertex="1">
          <mxGeometry x="2030" y="910" width="290" height="160" as="geometry" />
        </mxCell>
        <mxCell id="QxuZdcqgp66eboORH_xr-30" value="" style="shape=image;imageAspect=0;aspect=fixed;verticalLabelPosition=bottom;verticalAlign=top;image=data:image/jpeg,/9j/4AAQSkZJRgABAQAAAQABAAD/2wCEAAkGBxMSEhISEhMVFRUXGBUYFhcVFhcVFRUXGBYWFhgVFRcYHiggGRolGxUZITEhJSkrLi4uFx8zODMtNygtLisBCgoKDg0OGRAQGy8mIB4tLS0rMTItKy0tMS0rLS0tLS0tLS0tLS0tKy0vLS0tLS0tLSstKy0rLSsrLS0tLS0tN//AABEIAI8BYQMBIgACEQEDEQH/xAAcAAEAAwEBAQEBAAAAAAAAAAAABQYHBAMBAgj/xABREAABAwEDBwgFCAUKBAcAAAABAAIDEQQSIQUGFDFBUWEHExUicYGR0TJSU5KhVGJyk6KxweIWI0Ky0iQzNENzg7PC4fA1lLTxFzZjgqPD0//EABoBAQADAQEBAAAAAAAAAAAAAAABAgQDBQb/xAAsEQACAgEDAgQGAwEBAAAAAAAAAQIRAxITMQQhIkFR8AVhcZGx0YGh8TIU/9oADAMBAAIRAxEAPwDcV8vDevqhbVNdOCtGNgmbw3peG9V/TTxTTSr7TJosF4b0vDeq/pp4ppp4ptMUWC8N6XhvVf0wobaeKbTFFgvDel4b1X9NPFNMKbTFFgvDel4b1XzbTxTTSm0xRYLw3peG9V/TTxTTDxTaYosF4b0vBV/TSmmnim0xRYLw3peG9V/TSmmFNpiiwXgl4b1X9NKaaeKbTFFgvDel4b1X9MKG2lNpiiwXhvS8N6r+mlNNKbTFFgvDel4b1X9NPFNNKbTFFgvDel4b1X9NKaaeKbTFFgvDel4b1X9NKaYeKbTFFgvDel4b1X9NPFNMPFNpiiwXgl4b1X9NPFNNKbTFFgvDel4b1X9MKaaeKbTFFgvDel4b1X9NKaaU2mKLBeG9Lw3qv6aeKaaU2mKLBeG9Lw3qv6aeKaaU2mKLBeG9fVCWaYuKmgqSjRB9REVQCoHKKnioHKOtdMXJKOFERaSQiIgCIiAIiIAiIgCIiAIoLL2csdnq0Uc8axXqt7ePBU60Z/TVwcBwaxpH2gVox9LkmrSJSbNOcaYnALn0+L2sfvt81lttzvknZzcrqtrXBoaTTVWmxQsjZHGscwNdhaB3alZ9HkXKDTRtmnxe1j99vmmnxe1j99vmsDmtczDRziDxDfEYYhfjpKT1/gPJcdtlbN/0+L2sfvt800+L2sfvt81gHSUnr/AeSdIyev8AAeSbYs3/AE+L2sfvt800+L2sfvt81gHSMnr/AAHknSUnr/AeSbYs3/T4vax++3zTT4vax++3zWAdIy+ufAeSdIy+ufAeSbYs3/T4vax++3zTT4vax++3zWAdIy+ufAeSdIy+ufAeSbYs3/T4vax++3zTT4vax++3zWAdIy+ufAeSdIy+ufAeSbYs/oOK0Md6L2u+i4H7l6LFczrfK60xgEl15pFB1qXgHCg1ihW46HKdUZPgPvKpLw8k2eCJNDO2pMD6cC1x7g0krhjytGSWuqxw1teKEdoVU74B3IvjXA4gg9mK+qQEREAREQBERAduT/xU8FA5PU8Fny8kM+oiLkQCoHKKnioHKP4rpi5JRwoiLSSEREAREQBERAEREAXHle28zDJJtAw+kcB8SuxVjlCmLbM2m14r2Brj99F0xR1TSJMuypbHSPNTXEntJxJXEhKnc081Z8oPkbDdaI21c99Q0E1utwBNTQ9wPf78pRxxuXZI7dkiCX0GmpaZmryTOlY2W2SGMOALY4iC+hFRfeQQOwA9q/fKFmlYbDYnOhjeJTJGwSPc866uLReNDVrXYtGxZZfEMKlpXd/Lgq5ozmG2OIpfkBHqMDvEr0593tJ/qh5rhyawkuoJDgP5t10967uZf6tq+sHks7m5vV+zndjn3e0n+qHmvG+7nL16b0aXuaF7XWlNVOK9uZf6tq+sHkvkkElDdbaa7KyCnfQKO/uwfHvJIJfOSDUfqhgdW9NJcRVskx3fqhTxqv0IX0xbaa7f1gp9y9Icmy06sVqDd/ONYzEtHpEBoxe2prheqU7+7BwysDutKZa0FTzeA76hc0zY6dRzieLQB41UqbH1i2R8xFxrrjXGSTEtONQGUo4il6ocwg0wKaDENVntDvpvYB23WCv2jtVGr4X5IogyV0NsUhaXXCGjC86jG16+F55A1xvGvW0jXgpdwdQhkMsYNcGCNpxDxQvu3yKPIoXGopWtAoi1WaQEvkDqkmrnYkuNSSScSSamu1VcWiKP0bMxpIfM3DD9U0y1xoaElrThj6WKsuY+anSE5bHG7mWFvOyyuJa3FjrjWx3avIDhS8aNeDgQL1WsVlfNJHFGKvkc1jBvc4horwqda/pjJmT2ZNsTIoIpJubAq2IN5yVxIvydZzQTUk69QoNQCz5smlUuWQfiz5NsWSoHSNjEbGBgkkDKvPox35C0VIxq46hi7erA1wIBBqDqI1EbFl+Ws6obOZZ2uldFNzkVpsM5c2VkxYC10bXg820g9bG5RwIqcDHZlZ4WuZ9gskd2O6I2tY4iTnoGAX3yuuhzHc21xYQQHEYtoQVleKTWoGwriyrkmK0NuytrrAcMHtrta7WF2hFyToGZ5RZNk+RrXm/C8nm30pvNx2wOp46xtpOWS0CRocP+yseWMmMtML4ZNThgRraRi17eIOKy/Nu2OhlfBLg9jix2JpUOu1HDaOB4rVjlqXzJTLmiIrEhERAEREB25O196ngoHJ34qeCz5eSGfURFyIBUDlH8VPFQOUV0xcko4URFpJCIiAIiIAiIgCIiAKq8o7K2Zp3P+9rlaly5TyPpcboAaE4g7ARqJ4bO9dMU1Cak/IkwRbByGykQWlpjdQzCkgFWk822rK7LoAOOHX3qvWLkntrpbshjjirjIHXzT5jBrPbRbLkbJUVlhZBC26xgoNpJ1lzjtcTiTxWv4h1eOWPRF22WnJVR1RRhrWtGoAAdgFFnXLXktrrK2doYHslj5w4B7mXZWNbvNHTVpxcVoVpvYFmNDUtwBcKEUBOo1IPdTCq/mjPXKelZRtM+y+WM1GjIxzYoRsN0n/3Ly+ni3O/Q5EJA9oreZe3dYtp4Lv0Zvso/r/8AVRdV1aYPZRe6fNejFrzJR16M32Uf1/8AqujJ2RTaJGQRxxh7zQO569dGsvLa4gAE04KM00eyh90+asnJpa2i2tYWsBkjmYx1DW+5tQK11UBHgkpKu3v+hJ9i22LJVjsxDYbNFK5lDz09Huc4ftMBNGYjCi/GU827PbLxEEcdpu/qyx5Echa2gjc0Hq4AAEaqcKL66WmBY0EYEUOB3a115IcXTRANaOsCTQ4AGpOvcFm1d7KNJKzLJbKGkl0TAAKFvO4gg47a12UTRQSCI2Upq54Y11GtahfrLeUGST2hzGR3Xyylrg01LXPcQ6tdZBr3rmFsHsovdPmtVr3/AIdLR16M32Uf1/8AquU5Pd8wf3jPNeE0l41utbwaKBeahte/8ItF15HrEJMqRE/1TJZB2gCMf4te5f0Mv5+5F7QGZUaD+3DMxvE9WSnhG7wX9BFed1P/AGQZ3yn5oT218M0DBIYg5gie5rWkuLTzhJNHNFMWmlSBsqDVM382BA202m1RMtro3OjtkFXc5AzqSc7GCBzrqAPqKCg6pOK24f72qPhyU1lpltLSb0scTHtwunmjIWuG2v6wjsAVY5Wo6Qc2RLCyzRPdFJLLC4c5ExzucLGltbkTndYg6wHE0qvCbPWwNaxzrSxt6uBvBzLtLwlbSsVLwrfApVSWV4r0Dw1srsAQ2CQRSkgggMeXNA1bTQioNQaLHM+s3LVNa420POWiBscTJpo3TAsmvuvEUaQGkuIZepWm1RjipvxMG2aQy8I77b9C67eF66CAXXddKkCvELKs+YhFlQkVAkjjkNN4vR+NI9fFW7MiyBnOFnMtbqewWM2a1c5hjO++WyHB3WDaOrUHfUeUSa9lNoH7EMYOyhvPfr7HDxV8SqdAtdkkvMa7eAvVcNgtrC1jQ68aahiOOIwwXcuzi1yTGSlwwiIoJCIiA7cn/ip4KByfr71PBZ8vJDPqIi5EAqByjr71PFQOUV0xcko4URFpJCIiAIiIAq7l3PSy2YlhJkkGtsdDd+k44DsxPBQXKFnY6MmywOo6n6141trqjadhprOzVvpmMj6rpGF8kNmhy8qZr1bKKcZsfgzBSuSeUqzSENma+An9o9ePvc3EdpbRZGivoQs3p+XmEVjF8HU6tGniN66rBnVzeHMg11kPx/dWI5By2+zOpi6MnrM/zN3H71o1mnbI1r2GrSKgrXiwYMkaa/tnznxDqOt6ed6vC+KSr6eZo1izjgn6hcY3HCjur7rhhXvqvEz2iGUtdK2RlMLzReFdQJFFQ1J5NymWkNeat3nW3/T7lxy/D1HvD7fov0XxjVJQz/f9/s9OUbOW0R2YticI74kBc2oeBd/ZdXqniMVhcAxH+9i1zlO/mGf3n7iyOHWP97FwxJJdj6AkIrQKD9aBgMOYBpwrTFJJGupWYYEH+YpiOwL8WK1SHC9MQAKCMXqdu4Lq51++1+4PNal3Xv8AZY8tIHtm/wDLjyX4ZayJA4SgFoq14hAINQRQU1igNV0c6/fa/cHmunJNhfaLRDE02oOkc2O8WAXWl2JJOwCp7kfv3YNBzLymcoB3Ox3jGAH2hjeba52xrmuBBfTE3fAVCrmXs8Y5InxWR4ga5rg8vje6aUUd1AQ260EADteNgJW25PyRFAyNkYIbG0hoJrUmlXur6TjTWd53rJeUzNV9lkNphdOYZXGrYheELjiainVYTq44bljxZYTnXHp7s5qKso8NmcAGtljdTCjGRyHAkYU6x9EmtMRQ6iF4W2MgXZXln0rOYzgAdwOpw8RvXnNAXuq5tocKayyrq/dSi9WymMA3rWwAgioo2oLXDAmmtjT2tG4LV4vd/sucfMRe2/8Ajd5r8yxMAq2S8d1wj4ldcVqhGBaXigFHRRjABo9Jha7U2la7SdZqvO0y2cjqRyNdwfRuo40dfJxphUYDZrVX9CD85Eyk6y2iG0MxdE9r6esB6Te9pI71/U2TrayeKOaJ15kjQ5p4EVFeP3Ffyu2OE/1j2el6cd4a3lvWY6uoRj0db3bG1N95Mc8DYnaNLJHJZXuwIfdMDnGhIbLdJYSakAYYu31y58epWuUQbmQqvn5nLHZIbhMgkla4MMQvOYBQOlpUGjbw1V2Kx2W0slY2SNzXscKtc01DgcagqqZ35rm1uaZr0rAXPaWdQ2drGEhsIabz5pHltSatpHqBpeyQq+4O7NXOPTKuYC+N197XtFI42AtayJziBelNHOc0VuaifRrYVB5oZBbZIQAX3ntYXtc4ODXgEupQCpLnGrjUnDHAKYtErWNL3uDWtFS5xoBvJJwCiVX2B+bXbGRMfJI4NYxpc5x1AAVJ8FhML5bfa5JrtXSvLg12pjNTb1Nd1oA7uKnc9s6XW5ws1nvaOHDGlDO8HDD1AcQNpodynM2siizR9al92Lju4A7l6GCGzHXLl8Gab3Xoi+3mSGTrC2JtBi4+k46zwG4DYF1Ln06KtOcZX6QXu1wOINexVnqbuXmaMehLTDhH1ERULhERAduTvxU8FA5P196ngs+Xkhn1ERciAVA5RU8VA5R/FdMXJKOFERaSQiIgC4cu5RFms8sxp1W9UHUXHBoPa4hdypfKnaaWeKMH05KniGNOHi4eClK2DK7ZMXOLnGriSSTrJJqSe8rmX7l1r8LQVCIiAK1ZkZTLXGB2o1LeB2j8fFVVe1kmuPY8bCD3bfhVXxz0yTM/VYFnxSg/4+prSLzsz6tBXovUPhmqdEdnnaL1kY06284O65h5dyzOHWP97FpmXYb0dfVNSOBw/FVE5Ji3EdhXmZkoZH8+59j8LzbvTRvldvtx/VEAx5GokdhouzS2erL9afJSXREfzvFOiIvneK5rJR6NkbpbPVl+tPktZ5G83K1t8jHtBBbBfeXVB9KUCgoD6IO0F2wgnmzJ5L45LtotbXc3gWROP85uMg2M+bt24YHTMuZXiscBkfgB1WMGBc6mDGju7gFmzdQ5LRHzFkk9wAJJAAxJOAAG0lYtykco7J79ks1XQYCSVjrvOkGt1hoeoCB1h6WzD0vHLWd9qtImY+S7FK1zHRNa26GuBBAJF6pB118FB2rM4xxMmcOo6lKOxF4VFRTaq4sag7lyQVqS1NoaCQHYTKSB3UQ2mMihbIe2X8qlOiI/neKdER/O8Vr3CbIrnIfZv+s/KnOQ+zf9Z+VSvREfzvFOiI/neKbgsgF8Vg6Ij+d4p0RH87xVdSIPuZ+XLRZXSGCVzBdLi3WwmoxLDVpPGlVr+Qc77VJZYp3RRyFwN65ebqJGoXjs2LJY7IyNrro1g1JxOorTMwx/IYOx37xXOSi3bVkNNrs6JH9MZpKBjYo3HAXyXAnVg4ENJ4FVe2utE0jtLmc+4JKNwDA5ovNLWABuIpQkVwVlylklstSKNfvp1XcHjb26wq5PE8OLX1r1Qa66DqUJ24PGO0UW3psOCVuP28/4PM6rLnx1f3XH8/M/WRoGQ/rSK3Oqxu10hFXdlAaVXQ2Oa1GpNW11moibwa39s8Sv1kiwGbF/oCpNNt43ro7agnhdG9WdjQAABQDUBqCtnzrHJ13l+CvTdNLNBanUfz9fx7s4LJkeNnpVefnej3MGAUgAiLz5zlN3JnqwxwxqoqgiIqlwiIgO3J/4qeCgcn/ip4LPl5IZ9REXIgFQOUVPFQOUQumLklHCiItJIREQBZ7ytg0sv99/9S0JUrlVhrZ4X+rJTucx34tCtDkMyV+tflekutea7lQiIgCIiA0zNyS9A08B9wUoqzm3OWQxnYQB3jZ8FZI3g6l6mN3FHxHWY3HLL0tn2RgcCDqIIPeqi6w2uppZXuAriK0IG0dXUVd7DYnzOuRtvH4Ab3HYFbm5KdC2Nlb5I1gba1oOGKx9bOCpeZ63wLXcu3hfn8zGhYbZ8kk8D/CtKzEzHLA20WxgEmtkNbwZudJsL+GocTqueT8nhnWdi74Ds48V3OdReTkzX2R9Cfi0zhjXPdqaCTQVOG4DWeCw/OrKdutsxebJKI21ETMeq2us4ekcCfDGgWq5Rtl80Hoj4neuIlTijp7smjHtFtDcZLO+Nu1xrSuwal0zZQlexsTnksb6LTqFMBxPer3nof5I/wCkz94LO135DPKystEoLo7M97akVFaYcaL10K1/JJPB38KvHJyf5If7WT8FaUcqYox7QrZ8kk+P8KaFbPkknx/hWw1Xy8N6jV8hRkGg2zVoknx/hXzQrX8kk+P8K2C8N6XhvTV8hRktmyHbJjc5h0YOBc7Cg20qAtRyVYhBDHEDUMaBXfvK6bw3peG9Q3ZJE522p8VjnkjcWva0FrhSo6zRt7Vks+cdrfi6d5OGxuw1Gob1qmfH9AtP0R++1YsV6nQRW23XmXUYyVNWWHNzOS1m02aMzvuOlYHNo2hDni8DhtqtlWC5tf0yy/20X74W9LF1K8RSkuyCIizgIiIAiIgO3J5x71PBQOTtangs+Xkhn1ERciAVA5R/FTxUDlFdMXJKOFERaSQiIgCrfKJBesMnzXRu+2Gn4OKsio3KDnSyO/YubLnSMF5966GXj1aChLiKV2bMVMeQZZMMV5L2mXitBUIiIAiIgL9mgwPst06quH2jirJmtm/LM914hkTTQuqKu20YOzacBx1LOshZxmzMLObv1JNb92nClCrTmvyjCKdokj5uJ5DXuv1ubn0ujAE48Cdy0Ty1i8D8SPC/8OSXVSc43CTvlfuzbsn2GOFgZG0Abd5O9x2ldK8bNJUL1c6i8KTbds9uMVFVFUkHOosvz45T22ed1nhiE13CR3OXGh3qAhrrxG3ccN9JHlAz/ZYXNia3nZXUc5ofd5thrQuNDidg7ThhXhyVkawWiGOdtkhAkaHUdEy8K6weNarRix14pIuiq/8Aiq75G3/mD/8AkoXL2ehtTmuMFy62gHO3hrJJ9AcPBaf+i1i+SQfVN8l+Js0rE5pbosLailWsa1w4g0wK0ao+hJkAy2PZfb/KnTn/AKf2/wAq0lubbIcHWGz2lg1PaxjZafOaRRx7Cv1zGTB/OWJsf07Kf8rSp1R9CKM0OWx7L7f5VO5D5QXWaMxizB4vFwJmLaVAFAObO6vera+LJBBHNQioIwgdUV2jqa1H5NjsTWtifYWSS1LWkQsbzoGp9X0INNaXH0BX8vZ+m1Naw2cMDTXCa9XCmI5sKE6aHsvt/lWmx5oxyuBkstngYDW5G1pkdwe8CgHAKQteQMnxNL5LNZmtG0xs+GGJ4KNUfQUZF00PZfb/ACp00PZfb/KtPyRm1ZpXPmdZImxuoIozG0dUf1jm0wLvuX6seblkNqtLDZoS1rYbo5ttBVrq0FMKpqiKMu6aHsvt/lTpoey+3+VbH+i1i+SQfVN8k/RaxfJIPqm+Sao+goy/JOeIhZNG6zCVkoAc0ylopRwOph1g/AKAltMZJuxvaNgMgcR382K+C03lAyFZYbBNJFZ4mPBio5jGtcKzMBoQNoJHeozkuyRZ54ZzNDHIRIAC9gcQLgNBVdceZwTcSU2ip5v5YjssrZjZzK9voXprjWnVeoIzU96umT+U/nJY43WW6Hva0ubNeIvENBumMVxO9W39FrF8kg+qb5L0s+btkjc17LNC1zTVrhG0EHeDTArnKal3YJNERcgEREAREQHbk78VPBQOT/xU8Fny8kM+oiLkQCom0WYuOrBSyK0ZUCE6P4fevnR/BTiK24ybITQOCdH8PvU2ibjFkHoHBQ+W8x7Na3B80VZGijXhz2GmJAN0i8ATXHeVdERZZIWfyXaG79Y19u5cynM67PctdqZ6s0wHYJHU+BCg16SdogIiIAiIgLJmjkmG0CTnWklpFKOc3Aj5p4fFWH9E7J7M/WSfxKF5P3deYfNZ8C7zV1W/BCLgm0fK/EuozY+plGM2l2836IuOa73tssYbUhlWDEuNG4NqTiSBTWumHLjJZzZg8c+1pe+Mek1oLRV9PRrzjcD61QvLMKT9XK3c8HxaB/lVZzb/APM2U/7Afu2JeNnxpZZr07nv9DkeTp4SfNfjsd9t5OLFLI+WWKR73kue4zTdYnXqf8BqVgs+SGxsaxjA1jQGtaMAABQABT6LhuyNlkJ0fwTo/gptFG4xZBjJ/D7190DgVNom4xZCdH8F4WzIbJW3JGB4+ds7DsPYrEibjFlM/RAD0JrSweq2UkDsvAkL1s2aULXB7g+V41Olc6QjsBwHgrcibsgQnR/BQuTrHW220U1Ns3xa9XVV7JP/ABHKH0LL+7IpWR9xZ7dH8PvTo/gptFG4xZm/KrY7uTLQaanQf9RGobkUs1+z2o7pW/4bVbOWP/hNp+lZ/wDqYlA8gX9Gtf8AbN/w2rupvab+f6Isu+gcCvvR/BTaLhuMmyEGT+H3r5oHBTiJuMWQnR/BOj+H3qbRNxiyE6P4J0fwU2ibjFkRDZS06sFLBfUVZSsgIiKoP//Z;" parent="QxuZdcqgp66eboORH_xr-29" vertex="1">
          <mxGeometry x="49.84" y="40" width="190.32" height="77.1" as="geometry" />
        </mxCell>
        <mxCell id="QxuZdcqgp66eboORH_xr-31" value="Tester perform testing on developed&amp;nbsp;&lt;br&gt;work" style="text;html=1;align=center;verticalAlign=middle;resizable=0;points=[];autosize=1;strokeColor=none;fillColor=none;" parent="QxuZdcqgp66eboORH_xr-29" vertex="1">
          <mxGeometry x="35" y="117.09999999999991" width="220" height="40" as="geometry" />
        </mxCell>
        <mxCell id="QxuZdcqgp66eboORH_xr-34" style="edgeStyle=orthogonalEdgeStyle;rounded=0;orthogonalLoop=1;jettySize=auto;html=1;" parent="1" source="QxuZdcqgp66eboORH_xr-32" edge="1">
          <mxGeometry relative="1" as="geometry">
            <mxPoint x="460" y="890" as="targetPoint" />
          </mxGeometry>
        </mxCell>
        <mxCell id="QxuZdcqgp66eboORH_xr-32" value="if tester find any problem in developement, Then tester create a task and assign to the respective developer" style="whiteSpace=wrap;html=1;fontStyle=1;startSize=23;" parent="1" vertex="1">
          <mxGeometry x="950" y="960" width="260" height="60" as="geometry" />
        </mxCell>
      </root>
    </mxGraphModel>
  </diagram>
</mxfile>
